<?xml version="1.0" encoding="utf-8"?>
<!-- Generator: Adobe Illustrator 15.0.0, SVG Export Plug-In . SVG Version: 6.00 Build 0)  -->
<!DOCTYPE svg PUBLIC "-//W3C//DTD SVG 1.0//EN" "http://www.w3.org/TR/2001/REC-SVG-20010904/DTD/svg10.dtd">
<svg version="1.0" id="Layer_1" xmlns="http://www.w3.org/2000/svg" xmlns:xlink="http://www.w3.org/1999/xlink" x="0px" y="0px"
	 width="507.435px" height="107.211px" viewBox="0 0 507.435 107.211" enable-background="new 0 0 507.435 107.211"
	 xml:space="preserve">
<path fill-rule="evenodd" clip-rule="evenodd" fill="#FFFFFF" d="M417.921,40.782c7.863,2.519-2.948,6.843-2.565,10.26
	c-3.693,1.436-6.259,4.001-7.694,7.695c-6.043-0.697-1.567-11.358,2.564-10.26C409.44,42.562,417.637,45.627,417.921,40.782z"/>
<path fill-rule="evenodd" clip-rule="evenodd" fill="#FFFFFF" d="M163.99,68.996c7.602,3.727-3.379,10.005,0,17.955
	C154.129,84.696,164.445,76.647,163.99,68.996z"/>
<path fill-rule="evenodd" clip-rule="evenodd" d="M333.277,20.262c-4.885-1.1-6.444-5.525-12.825-5.13
	c-10.427,5.739-12.855,27.602-7.694,41.04c10.314,1.765,14.642-2.458,23.084-2.565c10.941-2.739,12.881-14.479,25.649-15.39
	c1.437,3.694,4.001,6.259,7.695,7.695c-2.907,6.498-11.368,7.441-20.52,7.695c-0.818,5.948,0.412,9.848,2.564,12.825
	c17.146,0.046,18.765-15.436,35.91-15.39c1.489,10.039-2.207,14.893-5.13,20.52c-0.785,5.209,7.41-0.525,7.694-2.565
	c3.796-1.334,6.465-3.795,10.26-5.13c1.05-6.18-4.685-5.575-2.564-12.825c8.085-4.744,17.266-19.169,28.214-12.825
	c3.079,3.369,1,4.034,0,7.695c-2.785,0.634-1.739,5.1-5.13,5.13c-0.247,6.592-10.012,3.667-10.26,10.26
	c1.88,4.567,4.664,0.37,7.695,0c2.283-1.137,4.587-2.252,5.13-5.13c5.825-1.869,7.672-7.718,10.26-12.825
	c10.871,3.266-2.392,8.367,0,17.955c10.376,0.116,3.024-17.495,15.39-15.39c0.396,6.38-4.029,7.94-5.13,12.825
	c7.238,0.398,6.429-7.251,10.26-10.26c9.896-0.364,11.853-8.667,23.085-7.695c0.772,6.758-3.552,8.418-10.26,7.695
	c-6.114,4.146-13.463,7.057-15.39,15.39c3.704,20.3,32.4,5.506,46.169,5.13c-7.039,10.916-25.531,10.379-43.604,10.26
	c-0.07-2.494-3.14-1.99-5.13-2.565c-2.615-3.37-2.515-9.455-5.13-12.825c-3.801,4.055-13.257,8.9-12.825-2.565
	c-8.521,1.371-15.837,13.069-25.649,5.13c-10.814,2.865-12.54,14.819-28.214,12.825c-2.165-10.714,4.985-12.114,5.13-20.52
	c-0.906-3.593-4.516-0.222-5.13,2.565c-2.069,2.206-7.026,1.524-7.695,5.13c-5.627,2.923-10.48,6.619-20.52,5.13
	c-3.708-3.987-5.395-9.995-7.695-15.39c-7.4,2.859-15.903,4.616-25.649,5.13c-1.487,8.327,1.747,11.933,2.565,17.955
	c-0.297,6.543-0.483,13.197-7.695,12.824c0-7.694,0-15.389,0-23.084c-1.32-8.939-16.758-3.761-25.649-5.13
	c-1.566-10.116,14.082-3.017,20.52-5.13c6.612-0.618-3.522-4.413,0-10.26c0-5.13,0-10.26,0-15.39
	c1.559-9.556,5.432-16.798,10.26-23.085C324.789,9.94,332.984,11.15,333.277,20.262z M410.226,48.477
	c-4.132-1.099-8.607,9.562-2.564,10.26c1.436-3.694,4.001-6.259,7.694-7.695c-0.383-3.417,10.429-7.741,2.565-10.26
	C417.637,45.627,409.44,42.562,410.226,48.477z"/>
<path fill-rule="evenodd" clip-rule="evenodd" d="M81.911,38.217c-4.388,0.112-6.644-1.907-7.694-5.13
	c-5.361,1.086-6.793-1.758-10.26-2.565c-9.668-1.972-12.262,3.129-20.521,2.565c-0.785,12.755,0.406,23.533,2.565,33.344
	c22.381-1.429,45.282-10.636,66.688-5.13c0.99,9.54-12.353,4.747-12.825,12.825c-0.723,4.143,2.425,4.416,2.565,7.695
	c14.57,2.503,15.173-19.421,25.649-12.825c-1.245,5.837-5.088,13.103,0,17.955c13.107-0.574,11.396-15.964,20.52-20.52
	c-0.668-7.509,5.799-7.881,5.131-15.39c3.029-3.811,2.219-11.46,10.26-10.26c2.198,8.184-4.037,7.933-5.131,12.825
	c0.059,6.042-4.418,7.552-2.564,15.39c0.033,6.028,6.998-0.938,5.13-5.13c5.097-0.033,3.262-6.998,10.26-5.13
	c-0.696,8.708,1.985,20.795-2.565,25.649c1.137,3.729,2.253-0.26,5.131,0c2.062-1.357,4.164-2.676,7.694-2.565
	c7.131-1.419,7.183-9.917,10.261-15.39c3.368-0.906,4.033-4.516,7.694-5.13c0.634-2.786,5.101-1.74,5.13-5.13
	c5.915-0.785,2.85,7.41,7.695,7.695c0.643,7.482-4.83,8.85-7.695,12.825c6.946,8.426,11.613-7.024,20.52-5.13
	c0.386-4.744,8.686-1.574,10.26-5.13c3.369,0.906,4.034,4.516,7.695,5.13c1.199,8.04-6.449,7.23-10.26,10.26
	c-1.774,5.066-6.842,6.837-12.825,7.695c-1.767-6.896,5.302-4.958,7.694-7.695c0.285-4.845,8.48-1.78,7.695-7.695
	c-1.137-3.729-2.252,0.261-5.13,0c-2.063,1.357-4.164,2.676-7.694,2.565c-2.334,4.506-8.988,4.692-12.825,7.695
	c-5.847,0.717-9.642-0.618-10.26-5.13c-2.063,1.357-4.164,2.676-7.694,2.565c-7.442,1.963-14.754,4.057-17.955,10.259
	c-7.838-1.853-9.348,2.623-15.391,2.565c-4.177-6.083-5.684-14.834-7.694-23.084c-4.812,2.884-5.448,9.941-10.26,12.825
	c-0.817,6.022-7.938,5.741-10.26,10.26c-5.813-2.735-9.32-7.779-10.26-15.39c-5.416,2.279-7.581,7.809-15.39,7.695
	c-6.527-0.313-9.947-3.733-10.26-10.26c-5.547,2.149-8.75,6.641-17.955,5.13c-2.938-8.068,4.027-6.232,5.13-10.26
	c2.282-1.992,5.792-2.758,10.26-2.565c-0.319-5.665-10.88-1.089-15.39-2.565c-0.306,3.365-4.818,1.695-7.695,2.565
	c-2.038,0.616-2.588,2.47-5.129,2.565c-5.985,0-11.971,0-17.955,0c-0.696,8.708,1.985,20.795-2.565,25.65
	c-6.203-3.202-8.296-10.514-10.26-17.955c4.387-0.539,6.644,4.374,7.694,0c2.43-9.269-10.102-3.578-15.389-5.13
	c-0.794-3.481-6.422-2.128-10.26-2.565c-1.667-2.608-5.897-2.652-5.13-7.695c12.147-1.033,17.651,4.578,30.779,2.565
	c-2.522-10.302-3.143-22.506-2.564-35.91C48.442,22.61,80.793,21.771,81.911,38.217z M163.99,86.951
	c-3.379-7.95,7.602-14.228,0-17.955C164.445,76.647,154.129,84.696,163.99,86.951z"/>
</svg>
