<?xml version="1.0" standalone="no"?><!-- Generator: Gravit.io --><svg xmlns="http://www.w3.org/2000/svg" xmlns:xlink="http://www.w3.org/1999/xlink" style="isolation:isolate" width="200" height="35.78337558876055"><g transform="translate(7.935584489184319e-16,-1.3589109686670306e-15)"><g transform="translate(0,0)"><path d=" M 132.64483695826252 4.210694201935721 C 130.64046324387567 3.7593510932713325 130.00078696532313 1.9437208606895915 127.38258662315273 2.1057940678918037 C 123.1042642649313 4.460574159369005 122.10802693053391 13.431223600032197 124.22564673400383 18.944995140243147 C 128.4576038456079 19.669195673691004 130.23343382224377 17.936448448336723 133.69728702528448 17.89254507322119 C 138.18650970882726 16.768700732646863 138.98251482774444 11.951638827446942 144.22137738358708 11.577844671089434 C 144.81099560826956 13.093536892367844 145.86303536337456 14.145986959389802 147.37872758465298 14.735194872155311 C 146.1859508420281 17.40140170861094 142.714301712565 17.788325846311412 138.9591270484773 17.89254507322119 C 138.6234919003978 20.333080355344624 139.12817555826794 21.933296831518362 140.0111668035823 23.154795408330983 C 147.0463749319092 23.173669756511497 147.71066992547978 16.82122065801872 154.7454677418897 16.84009500619923 C 155.3564221862545 20.95921634063722 153.83990934114217 22.950870385598073 152.6405676078458 25.2596955423749 C 152.3184727530262 27.397010317859262 155.6809789125759 25.044281785966895 155.7975074969947 24.20724547535294 C 157.35505153380382 23.659889378118127 158.4501740401904 22.650111750460802 160.00730776508254 22.10234534130902 C 160.43813527789857 19.5666176944491 158.08499643408922 19.81485640421451 158.95526800997754 16.84009500619923 C 162.2726398586608 14.893575272104815 166.03971356834057 8.974825869846818 170.53180843530214 11.577844671089434 C 171.79515882764545 12.960185519353363 170.94212035226974 13.233042944136834 170.53180843530214 14.735194872155311 C 169.38908974654728 14.995332627512784 169.81827601169545 16.8277856486902 168.4269083012582 16.84009500619923 C 168.3255612577672 19.544871162849816 164.31886538857836 18.344708805719513 164.21710803317038 21.049895274287064 C 164.9884944370695 22.92378979907821 166.13080281390737 21.201710683565086 167.37445823423624 21.049895274287064 C 168.31120034067334 20.583370624694876 169.25655899736674 20.12587283727597 169.47935836828017 18.944995140243147 C 171.86942528461657 18.178122167430654 172.6272713952558 15.77820776508701 173.689158636368 13.68274480513335 C 178.14965948572305 15.022823525949615 172.70769253098143 17.115824614401472 173.689158636368 21.04989527428706 C 177.94655508682408 21.097491456655305 174.9299418732781 13.871488286938455 180.00385903849974 14.735194872155308 C 180.16634255761895 17.352984902408757 178.3507123250372 17.99307149287825 177.89895890445584 19.997445207265105 C 180.8687965594675 20.16074935021822 180.53685421864068 17.022273497332854 182.10875917254367 15.78764493917727 C 186.16920590285528 15.638291401401055 186.97218632436093 12.23147155481886 191.58080977574127 12.630294738111392 C 191.8975705756403 15.403182672978605 190.12338184667226 16.084300455144863 187.37100950765344 15.78764493917727 C 184.86236244731342 17.488798146925042 181.8469801695183 18.6832161372178 181.0563091055217 22.10234534130902 C 182.5761044459698 30.431677255751815 194.35041521527276 24.361522756132764 200 24.20724547535294 C 197.11181441646488 28.686210360971536 189.52432644789954 28.46587286155993 182.10875917254367 28.41704574344078 C 182.08003733835594 27.393727822523523 180.8203797532653 27.600525028675207 180.00385903849974 27.364595676418823 C 178.9308933756294 25.98184451623792 178.97192456732617 23.485096501489924 177.89895890445584 22.102345341309025 C 176.3393633080619 23.766160164612742 172.45945382121602 25.754121402320894 172.63670856934604 21.049895274287067 C 169.1404407248649 21.612432912449684 166.13859874032977 26.412261717136964 162.1126182110434 23.154795408330983 C 157.67550514095552 24.33033905044323 156.96730677226938 29.235207705874224 150.53607778571885 28.41704574344078 C 149.64775248548392 24.02096386504964 152.58148269180245 23.446527181294964 152.64097791976275 19.99744520726511 C 152.26923532299008 18.52319448960043 150.78800930273695 19.906355961698296 150.53607778571885 21.049895274287067 C 149.68714242951282 21.95504336311765 147.6532262571043 21.675210635745728 147.37872758465298 23.154795408330983 C 145.06990242787614 24.35413714162735 143.07865869483226 25.870649986739696 138.9591270484773 25.2596955423749 C 137.43769046036132 23.62378192942498 136.74549425643698 21.158627932283487 135.80177684741142 18.944995140243147 C 132.765468661851 20.11807691085359 129.27658643187527 20.838994948965706 125.27768648910883 21.049895274287064 C 124.66755266857795 24.466562606876483 125.99450140805128 25.94614737946174 126.33013655613077 28.41704574344078 C 126.20827391679138 31.101716616159955 126.13195590023541 33.83193211166253 123.1727863550649 33.678885766633606 C 123.1727863550649 30.521945877484697 123.1727863550649 27.364595676418823 123.1727863550649 24.20724547535294 C 122.63117462466764 20.53946724957934 116.29677925052145 22.664062355637704 112.64869599676229 22.10234534130902 C 112.006147534791 17.951629989264525 118.42670841150039 20.864434287817694 121.06829653293795 19.997445207265105 C 123.7812789279279 19.74387244257911 119.62317796137798 18.186738717686975 121.06829653293795 15.78764493917727 C 121.06829653293795 13.68274480513335 121.06829653293795 11.577844671089434 121.06829653293795 9.472944537045514 C 121.70797281149048 5.552003858502888 123.29711086590609 2.5805249558233445 125.27809680102577 0.0008939338478839431 C 129.1621094070413 -0.0245454050041074 132.524615566591 0.4719320145267192 132.64483695826252 4.210694201935721 Z  M 164.2179286570043 15.78764493917727 C 162.52251981609407 15.33671214242985 160.68637398766398 19.711047489221702 163.1658889018993 19.997445207265105 C 163.75509681466482 18.481752985986695 164.8075468816868 17.429302918964737 166.32282879104824 16.840095006199228 C 166.16567932684964 15.43805918592085 170.6019717731036 13.66387045695284 167.3752788580702 12.630294738111392 C 167.2587502736514 14.61825597581954 163.89542349026777 13.360649950313764 164.2179286570043 15.78764493917727 Z " fill-rule="evenodd" fill="rgb(255,255,255)"/><path d=" M 29.506371637778425 11.577844671089434 C 27.70592294612448 11.62379960578981 26.78025926144552 10.795379845432173 26.349431748629513 9.472944537045514 C 24.149749561766072 9.918543278872356 23.562182896668432 8.751616187016428 22.13963148054168 8.420494470023556 C 18.172735867298677 7.611359369763398 17.10838675468466 9.704360458215255 13.71962063244904 9.472944537045514 C 13.397525777629458 14.706473037967577 13.886207270737895 19.128814879044644 14.772070699470998 23.154385096414014 C 23.955261713123424 22.568049367067278 33.35181492359901 18.79030754754635 42.134951818207995 21.049484962370094 C 42.541160616005946 24.96386065024124 37.066368707906925 22.997235632215414 36.872701483098204 26.31173529747989 C 36.57604596713061 28.01165756947676 37.86770788174469 28.12367272280892 37.92515155012016 29.469085498545766 C 43.90339618033846 30.496096226715736 44.15081426626994 21.500417759117518 48.44924190842278 24.206835163435972 C 47.93840357179808 26.601825822776004 46.3615748748915 29.583152211462767 48.44924190842278 31.573985632589682 C 53.82720020411744 31.33846659225027 53.12515651418584 25.023766190118515 56.86884244459845 23.154385096414014 C 56.59475408406407 20.073352911904117 59.24824125109371 19.92071687879216 58.97415289055934 16.83968469428226 C 60.21698768705427 15.27598597871864 59.88463503431049 12.137510125833273 63.18395315864717 12.629884426194426 C 64.08581875214202 15.987877154657468 61.527523949848856 15.884888863498595 61.07864271268629 17.892134761304217 C 61.102851115787374 20.37123936362261 59.26588466352331 20.990810358243724 60.02660295758129 24.206835163435972 C 60.040143250841226 26.68019539891682 62.89796575252073 23.82196258532034 62.131503091625206 22.101935029392052 C 64.2228629324092 22.08839473613212 63.46994056477361 19.230572234452612 66.34130335971304 19.997034895348133 C 66.05572626550358 23.570031068302214 67.15577251489378 28.529471208689905 65.28885329269109 30.52112525365076 C 65.75537794228327 32.05117839202303 66.21328604161914 30.414444155239174 67.39416373865197 30.52112525365076 C 68.24022691143922 29.96433198232569 69.10270256090516 29.42313056384539 70.55110362780087 29.4686751866288 C 73.47703790769701 28.886442576451742 73.49837412737932 25.39961190606086 74.76131420780568 23.153974784497045 C 76.14324474415264 22.782232187724375 76.4161021689361 21.30100616747125 77.91825409695458 21.049074650453125 C 78.17839185231205 19.90594564978132 80.01125518540644 20.335131914929455 80.0231542309985 18.944174516409205 C 82.450149219862 18.622079661589623 81.19254319435623 21.98458582113931 83.18050443206437 22.101524717475083 C 83.44433499467455 25.17147848022686 81.19869787311073 25.73278518263857 80.0231542309985 27.363775052584877 C 82.87318080625562 30.82106326495409 84.78810652274353 24.481744147804275 88.44275476717416 25.25887491854096 C 88.60113516712367 23.312355184446545 92.00672407795497 24.61304396123392 92.652555035262 23.153974784497045 C 94.03489588352593 23.525717381269715 94.3077533083094 25.006943401522843 95.80990523632788 25.25887491854096 C 96.30186922477206 28.557782730960668 93.16380368380366 28.225430078216895 91.60010496824005 29.4686751866288 C 90.87221162753947 31.54731535798679 88.79275083234755 32.273977762936454 86.33785463313025 32.626025387694675 C 85.61283347584846 29.79651440828593 88.5133284168926 30.591698903369185 89.49479452227916 29.4686751866288 C 89.61173341861493 27.480713948920656 92.97423957816461 28.738319974426425 92.65214472334503 26.311324985562923 C 92.18562007375284 24.78127184719065 91.72812228633394 26.418416395891473 90.54724458930112 26.311324985562923 C 89.70077110459691 26.868118256887993 88.83870576704793 27.40931967536829 87.39030470015221 27.36377505258488 C 86.43263668594977 29.212640550441 83.7024211904472 29.288958566996982 82.12805436504243 30.52112525365076 C 79.72896058653272 30.815318898116544 78.17182686164058 30.267552488964768 77.9182540969546 28.416225119606842 C 77.07178061225038 28.973018390931905 76.20971527470141 29.514219809412204 74.76131420780568 29.4686751866288 C 71.70777292173261 30.274117479636246 68.70757218486534 31.133310633766456 67.39416373865198 33.67806514279967 C 64.17813893345973 32.91775716065866 63.55856793883862 34.75431330100575 61.07905302460327 34.730515209821625 C 59.3651801474295 32.23458781890756 58.74684008855928 28.643948233523872 57.92211313545436 25.25887491854096 C 55.94769219100614 26.442214487075592 55.68673381181473 29.337785685116124 53.71231286736653 30.52112525365076 C 53.377088031203975 32.9920236176298 50.45525687047752 32.87672596896189 49.502512599278695 34.73092552173859 C 47.11736942594589 33.60872242883214 45.67840553314043 31.539109119647435 45.292712331190856 28.416225119606842 C 43.0704629888942 29.35132597837606 42.18213768865929 31.620350879207024 38.97801192905911 31.573575320672717 C 36.29990604701141 31.445147690661848 34.89663929098214 30.041880934632566 34.76821166097127 27.363775052584877 C 32.492211457551846 28.245535362148303 31.17798238750454 30.08865649316688 27.40106119181755 29.468675186628793 C 26.195564779766666 26.158278640533993 29.05338728144618 26.911611320086553 29.505961325861467 25.258874918540954 C 30.44229312038159 24.441533579941442 31.882487948937953 24.127234651544246 33.71576159394931 24.206424851518996 C 33.58487209243663 21.882007841897398 29.251567937341544 23.759595173941253 27.40106119181755 23.153974784497038 C 27.27550574522546 24.534674385093094 25.424178375867534 23.84945348375716 24.243710990751676 24.206424851518996 C 23.407495303971658 24.459176992371052 23.181823749639467 25.21989528642903 22.13922116862473 25.258874918540954 C 19.68350434557349 25.258874918540954 17.227377210605287 25.258874918540954 14.772070699471016 25.258874918540954 C 14.48649360526155 28.83187109149503 15.58653985465175 33.79131123188272 13.719620632449057 35.78337558876055 C 11.174455811498877 34.46955683063021 10.31567296928564 31.469356093762933 9.509820364361225 28.416225119606835 C 11.309858744098197 28.195066996361284 12.235932740694125 30.21092944442323 12.666760253510134 28.416225119606835 C 13.66381821174146 24.613043961233913 8.521789268303184 26.94812908069667 6.352470163295348 26.31132498556292 C 6.026682501223054 24.883029202598618 3.7174470325292583 25.43818122625581 2.142669895207513 25.25887491854096 C 1.4586799296224813 24.188781439089393 -0.27693947915057393 24.170727714742817 0.03776976116359432 22.101524717475083 C 5.02182861656934 21.677672507247525 7.2801854075591494 23.97993267335287 12.666760253510134 23.153974784497045 C 11.631953598917782 18.926941415896568 11.377149898480887 13.91949478122367 11.614720498405141 8.419673846189621 C 15.773642088788971 5.174106582975704 29.04764291460862 4.829854884639867 29.506371637778425 11.577844671089434 Z  M 63.18436347056415 31.573985632589682 C 61.797919503130544 28.31200589269706 66.30355466335205 25.73606767797431 63.18436347056415 24.206835163435972 C 63.37105539278441 27.346131640155278 59.138277657346386 30.64873225982769 63.18436347056415 31.573985632589682 Z " fill-rule="evenodd" fill="rgb(255,255,255)"/></g></g></svg>