<svg class="disc" width="25" height="24" viewBox="0 0 25 24">
<path fill-rule="evenodd" clip-rule="evenodd" d="M7.01198 6.34315C8.51228 4.84285 10.5471 4 12.6688 4C14.7906 4 16.8254 4.84285 18.3257 6.34315C19.826 7.84344 20.6688 9.87827 20.6688 12C20.6688 14.1217 19.826 16.1566 18.3257 17.6569C16.8254 19.1571 14.7906 20 12.6688 20C10.5471 20 8.51228 19.1571 7.01198 17.6569C5.51169 16.1566 4.66884 14.1217 4.66884 12C4.66884 9.87827 5.51169 7.84344 7.01198 6.34315ZM10.6688 12C10.6688 13.1 11.5588 14 12.6688 14C13.1993 14 13.708 13.7893 14.0831 13.4142C14.4581 13.0391 14.6688 12.5304 14.6688 12C14.6688 10.89 13.7788 10 12.6688 10C11.5588 10 10.6688 10.89 10.6688 12Z" fill="black"/>
<path fill-rule="evenodd" clip-rule="evenodd" d="M22.6688 12C22.6688 17.5228 18.1917 22 12.6688 22C7.14599 22 2.66884 17.5228 2.66884 12C2.66884 6.47715 7.14599 2 12.6688 2C18.1917 2 22.6688 6.47715 22.6688 12ZM21.6688 12C21.6688 16.9706 17.6394 21 12.6688 21C7.69828 21 3.66884 16.9706 3.66884 12C3.66884 7.02944 7.69828 3 12.6688 3C17.6394 3 21.6688 7.02944 21.6688 12Z" fill="black"/>
</svg>
