<svg class="feather" width="25" height="24" viewBox="0 0 25 24">
<path d="M22.9948 2C22.9948 2 15.3548 1.63 9.33484 9.88C4.71484 16.21 2.99484 22 2.99484 22L4.93484 21C6.37484 18.5 7.12484 17.47 8.53484 16C11.0648 16.74 13.7048 16.65 15.9948 14C13.9948 13.44 12.3948 13.57 10.0348 13.81C12.6848 12 14.4948 11.6 16.9948 12L17.9948 10C16.1948 9.66 14.9948 9.63 13.2148 10.04C15.1848 8.65 16.5548 7.87 18.9948 8L20.2048 6.07C18.6448 5.96 17.7048 6.13 15.9148 6.57C17.5248 5.11 18.9948 4.45 21.1348 4.32C21.1348 4.32 22.1848 2.43 22.9948 2Z" fill="black"/>
</svg>
