<svg class="hugo" width="63" height="18" viewBox="0 0 63 18">
  <path fill-rule="evenodd" clip-rule="evenodd" d="M7.34906 0.756836H7.33746L7.33521 0.760498H7.31085L7.30035 0.760986H7.28735L7.276 0.76123L7.24072 0.762695L7.22894 0.762939L7.21722 0.763916L7.20544 0.76416L7.18195 0.765137L7.17059 0.765625L7.15887 0.766357L7.14752 0.76709L7.13574 0.768555L7.12396 0.768799L7.11224 0.769775L7.10065 0.770508L7.08887 0.771729L7.07715 0.773193L7.06537 0.774414L7.05402 0.775146L7.03052 0.777588L7.01917 0.779053L6.99652 0.781494L6.98474 0.783203L6.97302 0.784424L6.96167 0.785645L6.94989 0.786865L6.92639 0.790283L6.91461 0.79248L6.90289 0.794189L6.89197 0.795654L6.88062 0.797852L6.86884 0.800049L6.85754 0.801758L6.84576 0.803711L6.83398 0.806152L6.82269 0.807861L6.81091 0.810059L6.79913 0.8125L6.78778 0.815186L6.77649 0.817139L6.76471 0.81958L6.75378 0.821777L6.74243 0.824219L6.73114 0.826416L6.71979 0.828857L6.70844 0.831787L6.69708 0.834473L6.68579 0.836914L6.67401 0.839355L6.66266 0.842285L6.65094 0.845215L6.63928 0.8479L6.62836 0.85083L6.61688 0.85376L6.60596 0.857178L6.58325 0.863037L6.57196 0.866211L6.56061 0.869629L6.53876 0.876465L6.5274 0.879639L6.51611 0.882568L6.50476 0.885986L6.49384 0.889404L6.48248 0.892822L6.47113 0.896484L6.45984 0.900391L6.44891 0.904053L6.43756 0.907959L6.42664 0.911621L6.41528 0.915527L6.40442 0.919189L6.39307 0.923096L6.38171 0.926758L6.35901 0.935059L6.34772 0.938965L6.32587 0.947266L6.30402 0.956055L6.29266 0.960693L6.28137 0.965332L6.27045 0.969971L6.25952 0.974121L6.21582 0.992676L6.20496 0.997803L6.19446 1.00244L6.18396 1.00732L6.16211 1.0166L6.15118 1.02173L6.14026 1.0271L6.12933 1.03223L6.11884 1.03711L6.10791 1.04224L6.09741 1.04736L6.08649 1.05225L6.07599 1.05737L6.06512 1.06274L6.0542 1.06836L6.0437 1.07373L6.03363 1.0791L6.02313 1.08496L6.01263 1.09106L6.00214 1.09692L5.99207 1.10278L5.98114 1.10815L5.97107 1.11401L5.96057 1.11987L5.95007 1.12549L5.93958 1.13135L5.92944 1.13745L5.91858 1.14355L5.90808 1.14966L5.88708 1.16235L5.87695 1.1687L5.86774 1.17456L1.64679 3.77808L1.63629 3.78394L1.62622 3.79004L1.61612 3.79639L1.60605 3.80273L1.59598 3.80957L1.58548 3.81567L1.57541 3.82251L1.56531 3.82959L1.55481 3.83643L1.54517 3.84302L1.5351 3.84937L1.52542 3.85645L1.51535 3.86328L1.50571 3.86987L1.49561 3.87671L1.48596 3.88379L1.47589 3.89062L1.46622 3.89819L1.45657 3.90479L1.44647 3.91187L1.43683 3.9187L1.42719 3.92578L1.41751 3.93335L1.40787 3.94043L1.39862 3.948L1.38895 3.95508L1.37973 3.96265L1.37006 3.97021L1.36041 3.97778L1.35117 3.98535L1.34152 3.99292L1.32303 4.00806L1.31378 4.01514L1.30457 4.02271L1.29532 4.03027L1.2865 4.03784L1.27725 4.04541L1.26804 4.05298L1.24954 4.06909L1.2403 4.07642L1.23151 4.08447L1.21387 4.10059L1.20505 4.10791L1.19623 4.11548L1.18741 4.12402L1.17859 4.13232L1.16095 4.14844L1.14417 4.16504L1.13574 4.17358L1.12735 4.18188L1.11896 4.19043L1.10217 4.20703L1.09335 4.21558L1.08493 4.22388L1.07654 4.23242L1.06815 4.24072L1.05136 4.2583L1.04254 4.26685L1.03455 4.27563L1.02615 4.28442L1.01859 4.29321L1.01062 4.302L1.00262 4.31079L0.995087 4.31958L0.987091 4.32837L0.979126 4.3374L0.971161 4.34619L0.955597 4.36426L0.948059 4.37354L0.940491 4.38232L0.932922 4.39136L0.924957 4.40039L0.917389 4.40942L0.909851 4.4187L0.902283 4.42749L0.894714 4.43677L0.887573 4.44604L0.880035 4.45581L0.872467 4.46484L0.864899 4.47412L0.857361 4.4834L0.842224 4.50195L0.83551 4.51123L0.828369 4.52026L0.806946 4.5481L0.800232 4.55786L0.793091 4.56689L0.786377 4.57666L0.779236 4.58643L0.772522 4.59595L0.765808 4.60571L0.759094 4.61523L0.751953 4.625L0.745239 4.63452L0.738525 4.64429L0.732208 4.65381L0.725922 4.66406L0.719208 4.67358L0.712494 4.68384L0.706177 4.69336L0.69989 4.70312L0.693573 4.71313L0.686859 4.7229L0.681 4.73242L0.674255 4.74292L0.667969 4.75293L0.661682 4.76318L0.655792 4.77319L0.649506 4.7832L0.643616 4.79321L0.637329 4.80347L0.625549 4.82349L0.61969 4.83374L0.614227 4.84375L0.60791 4.85425L0.602478 4.86426L0.596588 4.87427L0.591125 4.88477L0.585236 4.89502L0.579773 4.90552L0.574341 4.91553L0.568878 4.92554L0.557953 4.94653L0.552063 4.95752L0.5466 4.96802L0.541168 4.97803L0.536102 4.98853L0.526031 5.00952L0.520996 5.02051L0.515961 5.03101L0.510925 5.04199L0.495819 5.07349L0.490753 5.08423L0.486145 5.09473L0.48111 5.10522L0.476074 5.11621L0.471436 5.12769L0.462219 5.14917L0.457581 5.16064L0.448364 5.18311L0.443726 5.19458L0.439117 5.20581L0.434509 5.2168L0.429871 5.22778L0.425262 5.23853L0.421051 5.24951L0.41687 5.26099L0.412659 5.27173L0.408875 5.28271L0.404694 5.2937L0.400482 5.30469L0.392914 5.32666L0.388733 5.33765L0.381165 5.36011L0.37738 5.37158L0.373596 5.38257L0.370239 5.3938L0.366882 5.40479L0.363098 5.41602L0.359344 5.42749L0.352631 5.44995L0.349243 5.46069L0.34549 5.47217L0.342133 5.48364L0.338745 5.49512L0.335388 5.50659L0.332031 5.51782L0.329102 5.52954L0.325745 5.54126L0.322815 5.55273L0.319855 5.56396L0.316498 5.57568L0.313995 5.58716L0.311035 5.59839L0.308533 5.61011L0.305573 5.62207L0.30307 5.63379L0.30014 5.64551L0.295074 5.66895L0.292145 5.68042L0.289642 5.69165L0.287537 5.70312L0.285431 5.71484L0.282898 5.72656L0.280396 5.73828L0.277863 5.74951L0.27536 5.76099L0.273254 5.77271L0.271149 5.78418L0.269043 5.7959L0.266968 5.80762L0.264008 5.81982L0.261902 5.83154L0.260223 5.84277L0.258545 5.85449L0.254364 5.87866L0.252686 5.89038L0.251404 5.90259L0.248047 5.92651L0.246796 5.93848L0.245544 5.95068L0.244293 5.96265L0.242584 5.97461L0.241333 5.98657L0.240082 5.99829L0.238831 6.0105L0.237152 6.02246L0.233368 6.05786L0.232513 6.07007L0.231262 6.08228L0.230408 6.09448L0.229584 6.10645L0.228729 6.13086L0.227905 6.14307L0.227478 6.15479L0.2258 6.17969L0.225372 6.19189L0.224976 6.20361L0.224121 6.22803L0.223297 6.25049V6.28931L0.22287 6.30005V6.31348L0.222443 6.32397V11.6401L0.22287 11.6523L0.223297 11.6633V11.675L0.224121 11.6873L0.225372 11.7224V11.7361L0.226227 11.7483L0.227051 11.7605L0.227905 11.7712L0.228729 11.7834L0.229584 11.7957L0.230835 11.8079L0.231689 11.8201L0.233368 11.8323L0.234619 11.8445L0.235474 11.8552L0.237152 11.8669L0.238403 11.8792L0.240082 11.8914L0.241333 11.9036L0.243011 11.9158L0.244293 11.928L0.24765 11.9514L0.250153 11.9749L0.251831 11.9868L0.25351 11.9985L0.255188 12.0098L0.256866 12.0198L0.258972 12.0317L0.262329 12.0552L0.266541 12.0786L0.269043 12.0908L0.271149 12.1035L0.274078 12.1147L0.276184 12.1265L0.27829 12.1387L0.280396 12.1492L0.282898 12.1609L0.285431 12.1729L0.287964 12.1841L0.290894 12.1958L0.293396 12.2075L0.296356 12.2192L0.298462 12.2302L0.301392 12.2417L0.307251 12.2642L0.309357 12.2747L0.312317 12.2866L0.315247 12.2979L0.317749 12.3093L0.320709 12.3206L0.323639 12.3315L0.326569 12.3423L0.329926 12.3533L0.333313 12.3647L0.340027 12.3882L0.343384 12.3994L0.346741 12.4109L0.350098 12.4226L0.353882 12.4338L0.357178 12.4453L0.364746 12.4678L0.36853 12.4792L0.372314 12.4905L0.379883 12.5125L0.383636 12.5237L0.387848 12.5352L0.391632 12.5464L0.395416 12.5574L0.399597 12.5686L0.403381 12.5796L0.407593 12.5906L0.411774 12.6018L0.415985 12.6128L0.420166 12.624L0.424377 12.635L0.428986 12.6462L0.433197 12.6567L0.437805 12.6672L0.442017 12.6787L0.446625 12.6892L0.450836 12.6997L0.455444 12.7107L0.460083 12.7212L0.464691 12.7317L0.469727 12.7424L0.474762 12.7529L0.479401 12.7639L0.494507 12.7954L0.499115 12.8059L0.50415 12.8164L0.509186 12.8274L0.514252 12.8379L0.519684 12.8486L0.524323 12.8579L0.529358 12.8689L0.534393 12.8789L0.539856 12.8894L0.545319 12.9004L0.550781 12.9109L0.555817 12.9219L0.566742 12.9429L0.572174 12.9529L0.577637 12.9639L0.583527 12.9744L0.588989 12.9849L0.599915 13.0049L0.606201 13.0151L0.612091 13.0256L0.624664 13.0466L0.630554 13.0562L0.636444 13.0662L0.642731 13.0764L0.649017 13.0864L0.655334 13.0962L0.661194 13.1062L0.667511 13.1162L0.674225 13.1262L0.680939 13.1365L0.686829 13.146L0.693115 13.1558L0.699829 13.1653L0.706573 13.175L0.713287 13.1846L0.720001 13.1948L0.726288 13.2043L0.733002 13.2141L0.739746 13.2236L0.74646 13.2334L0.753174 13.2434L0.760315 13.2532L0.767456 13.2627L0.780884 13.2812L0.787598 13.291L0.794312 13.3005L0.808594 13.3191L0.815735 13.3286L0.822449 13.3379L0.82959 13.3472L0.836304 13.3564L0.85144 13.375L0.858978 13.384L0.874115 13.4026L0.881653 13.4114L0.889648 13.4202L0.897186 13.429L0.905182 13.4382L0.91275 13.4475L0.919861 13.4563L0.935425 13.4744L0.951782 13.4924L0.959778 13.5012L0.966919 13.51L0.974884 13.519L0.982849 13.5278L0.990845 13.5366L0.99881 13.5454L1.00681 13.5542L1.0152 13.563L1.02316 13.5718L1.03116 13.5806L1.03955 13.5894L1.04794 13.5979L1.05594 13.6062L1.06433 13.6147L1.08112 13.6313L1.08951 13.6399L1.09793 13.6482L1.10632 13.6562L1.11514 13.6646L1.12396 13.6731L1.13235 13.6814L1.14075 13.6899L1.14938 13.6982L1.1582 13.7063L1.16724 13.7146L1.17606 13.7222L1.18488 13.7305L1.20251 13.7466L1.21133 13.7544L1.22897 13.7705L1.23779 13.7781L1.24686 13.7852L1.2561 13.7932L1.26535 13.8008L1.27457 13.8086L1.28357 13.8162L1.29279 13.8235L1.30203 13.8313L1.32053 13.8464L1.32974 13.854L1.34824 13.8691L1.35745 13.8762L1.3667 13.8838L1.37619 13.8914L1.38611 13.8989L1.39575 13.906L1.40543 13.9136L1.4155 13.9204L1.42499 13.9275L1.43451 13.9346L1.44418 13.9414L1.45413 13.9485L1.46399 13.9556L1.47366 13.9629L1.48395 13.97L1.49359 13.9771L1.50369 13.9841L1.51376 13.9915L1.52383 13.998L1.53433 14.0051L1.54474 14.0122L1.55481 14.019L1.56531 14.0259L1.57242 14.0317L1.58249 14.0383L1.59299 14.0452L1.60349 14.051L1.61356 14.0576L1.62366 14.0645L1.63373 14.0708L1.64423 14.0769L1.65515 14.0828L1.66522 14.0889L1.67487 14.0947L6.08478 16.6687L6.09363 16.6738L6.10284 16.6787L6.11206 16.6833L6.12134 16.688L6.13055 16.6931L6.1394 16.698L6.14862 16.7031L6.15741 16.7078L6.16626 16.7124L6.17548 16.7173L6.18433 16.7219L6.19354 16.7266L6.20239 16.7312L6.21204 16.7358L6.22083 16.741L6.23053 16.7451L6.23932 16.7498L6.24854 16.7549L6.25781 16.759L6.2666 16.7632L6.27545 16.7678L6.28467 16.772L6.29431 16.7761L6.30359 16.7803L6.31281 16.7842L6.32202 16.7883L6.3313 16.7925L6.34052 16.7969L6.34973 16.801L6.35944 16.8047L6.36908 16.8086L6.37872 16.8123L6.38837 16.8162L6.39764 16.8198L6.40686 16.8237L6.4165 16.8274L6.42578 16.8313L6.43542 16.835L6.44464 16.8389L6.45435 16.8425L6.46399 16.8464L6.47321 16.8501L6.48242 16.8535L6.4917 16.8569L6.50134 16.8601L6.51099 16.8635L6.52069 16.8669L6.53033 16.8704L6.53998 16.8735L6.5495 16.8762L6.56 16.8794L6.57672 16.885L6.5788 16.8853L6.59601 16.8904L6.59814 16.8914L6.61536 16.8962L6.61743 16.8972L6.63464 16.9021L6.63721 16.9031L6.65442 16.908L6.65649 16.9089L6.67371 16.9136L6.67584 16.9143L6.69305 16.9189L6.69513 16.9199L6.71234 16.9243L6.71448 16.9248L6.73169 16.9294L6.73376 16.9304L6.75098 16.9346L6.75336 16.9353L6.77057 16.9395L6.77264 16.9399L6.78986 16.9438L6.79236 16.9446L6.80963 16.9482L6.81171 16.9487L6.83167 16.9526L6.84894 16.9558L6.85101 16.9563L6.86823 16.9597L6.8703 16.9602L6.88751 16.9634L6.88983 16.9639L6.90869 16.9673L6.9259 16.9702L6.92804 16.9707L6.94568 16.9731L6.94775 16.9736L6.96539 16.9761L6.96747 16.9766L6.98511 16.979L6.98724 16.9795L7.00488 16.9819L7.00739 16.9824L7.02502 16.9844H7.02753L7.04517 16.9866L7.0473 16.9871L7.06494 16.9888H7.06702L7.08466 16.9902L7.08673 16.9907L7.10437 16.9924L7.10687 16.9929L7.12451 16.9946L7.12708 16.9949L7.14471 16.9966L7.14679 16.9971L7.16443 16.9983H7.1665L7.18414 16.9993L7.18628 16.9995L7.20392 17.0005H7.20599L7.22363 17.0012L7.22571 17.0017L7.24377 17.0024L7.26141 17.0029H7.26392L7.28156 17.0034L7.29919 17.0037H7.36133L7.37897 17.0034H7.38104L7.39868 17.0029H7.40082L7.41846 17.0024H7.42096L7.4386 17.0017H7.44067L7.45831 17.0007H7.46045L7.47809 16.9995L7.48059 16.9993L7.49823 16.9978H7.50031L7.51794 16.9966H7.52008L7.53772 16.9954L7.53979 16.9949L7.55743 16.9937H7.55951L7.57715 16.9919L7.59479 16.99L7.59692 16.9895L7.61456 16.9873L7.61664 16.9871L7.63428 16.9849L7.63678 16.9844L7.65442 16.9819L7.65656 16.9814L7.67413 16.979L7.67627 16.9785L7.69391 16.9761L7.69598 16.9756L7.71362 16.9731L7.71576 16.9727L7.7334 16.9697L7.73547 16.9692L7.75311 16.9663L7.75519 16.9661L7.7724 16.9626L7.77454 16.9622L7.79175 16.9592L7.79382 16.9587L7.81146 16.9556L7.8136 16.9551L7.83124 16.9512L7.83374 16.9509L7.85138 16.947L7.85345 16.9468L7.87067 16.9429L7.8728 16.9424L7.89001 16.9382L7.89252 16.9377L7.90973 16.9336L7.9118 16.9333L7.92908 16.929L7.93158 16.9287L7.94879 16.9241L7.95087 16.9236L7.96808 16.9189L7.97021 16.9182L7.98743 16.9136L7.9895 16.9131L8.00671 16.908L8.00885 16.9077L8.02606 16.9026L8.02814 16.9019L8.04663 16.8962L8.0567 16.8928L8.07599 16.887L8.08569 16.884L8.09491 16.8809L8.10455 16.8779L8.11462 16.8748L8.12305 16.8718L8.13226 16.8687L8.14197 16.8652L8.16125 16.8584L8.17047 16.8552L8.18018 16.8518L8.18982 16.8479L8.19946 16.8447L8.20911 16.8408L8.21881 16.8372L8.22803 16.8333L8.23724 16.8298L8.24652 16.8262L8.25616 16.8223L8.26581 16.8186L8.27509 16.8149L8.2843 16.811L8.29352 16.8074L8.3028 16.803L8.31201 16.7993L8.32123 16.7947L8.33051 16.7905L8.33972 16.7866L8.34937 16.782L8.35822 16.7778L8.367 16.7737L8.37628 16.7695L8.38507 16.7654L8.39429 16.761L8.40314 16.7563L8.41193 16.7522L8.42078 16.748L8.42957 16.7429L8.43884 16.7383L8.44763 16.7341L8.45648 16.7295L8.4657 16.7249L8.47491 16.7205L8.48419 16.7158L8.49298 16.7112L8.50226 16.7065L8.52069 16.6963L8.52869 16.6919L13.3972 13.9788L13.4059 13.9736L13.4156 13.9688L13.4253 13.9636L13.4341 13.9583L13.4437 13.9526L13.453 13.9468L13.4622 13.9419L13.4711 13.9363L13.4807 13.9304L13.4899 13.9246L13.4992 13.9192L13.508 13.9133L13.5172 13.9077L13.5261 13.9023L13.5349 13.8965L13.5437 13.8906L13.5529 13.885L13.5618 13.8796L13.571 13.8738L13.5794 13.8674L13.5882 13.8611L13.597 13.8552L13.6058 13.8489L13.6151 13.843L13.6239 13.8372L13.6327 13.8308L13.6411 13.8247L13.6495 13.8184L13.6579 13.812L13.6667 13.8062L13.6751 13.8003L13.6835 13.7944L13.6919 13.7886L13.7003 13.7817L13.7087 13.7751L13.7171 13.7683L13.7255 13.7617L13.7335 13.7554L13.7419 13.7485L13.7499 13.7419L13.7579 13.7351L13.7662 13.7285L13.7742 13.7217L13.7822 13.7153L13.7906 13.7087L13.7986 13.7019L13.8066 13.6948L13.8145 13.6877L13.8225 13.6807L13.8309 13.6738L13.8389 13.6672L13.8469 13.6604L13.8629 13.6462L13.8704 13.6394L13.8784 13.6323L13.8859 13.6252L13.8935 13.6179L13.9011 13.6108L13.9086 13.6038L13.9161 13.5967L13.9388 13.5747L13.9468 13.5671L13.9543 13.5596L13.9615 13.5525L13.9686 13.5449L13.9762 13.5374L14.019 13.4919L14.0262 13.4846L14.0333 13.4771L14.04 13.469L14.0472 13.4609L14.0539 13.4531L14.0677 13.4375L14.0745 13.4294L14.0812 13.4216L14.0946 13.4055L14.1017 13.3975L14.108 13.3896L14.1147 13.3816L14.1215 13.3735L14.1282 13.3657L14.1349 13.3577L14.1412 13.3496L14.1479 13.3418L14.1547 13.3337L14.1614 13.3254L14.1672 13.3169L14.1736 13.3091L14.1862 13.293L14.192 13.2852L14.1984 13.2766L14.2047 13.2683L14.2109 13.2598L14.2172 13.2515L14.2231 13.2427L14.229 13.2341L14.2349 13.2258L14.2411 13.2175L14.2471 13.209L14.2525 13.2007L14.2584 13.1921L14.2639 13.1838L14.2701 13.1755L14.2756 13.167L14.2811 13.1582L14.2869 13.1499L14.2928 13.1411L14.2983 13.1321L14.3041 13.1238L14.3096 13.115L14.3155 13.1062L14.3206 13.0974L14.3256 13.0889L14.3311 13.0796L14.3361 13.0708L14.3416 13.062L14.347 13.0532L14.3521 13.0439L14.3571 13.0352L14.3621 13.0259L14.3671 13.0171L14.3722 13.0083L14.3772 12.9995L14.3823 12.9907L14.3877 12.9819L14.3928 12.9727L14.3974 12.9629L14.402 12.9536L14.407 12.9446L14.4117 12.9348L14.4163 12.9253L14.4209 12.916L14.4255 12.9072L14.4301 12.8975L14.4348 12.8882L14.439 12.8787L14.4435 12.8696L14.4478 12.8601L14.4524 12.8513L14.457 12.842L14.4612 12.8328L14.4696 12.8142L14.4738 12.8047L14.478 12.7954L14.4822 12.7856L14.4864 12.7761L14.4906 12.7664L14.4944 12.7568L14.4986 12.7468L14.5027 12.7375L14.5065 12.7278L14.5103 12.7183L14.5179 12.6987L14.5217 12.6892L14.5255 12.6794L14.5292 12.6694L14.5326 12.6594L14.5359 12.6497L14.5393 12.6401L14.5431 12.6304L14.5464 12.6204L14.5498 12.6106L14.5565 12.5906L14.5599 12.5808L14.5666 12.5608L14.5699 12.5505L14.5733 12.5405L14.5767 12.5308L14.5796 12.5208L14.5826 12.5112L14.5855 12.501L14.5889 12.491L14.5918 12.4814L14.5947 12.4717L14.5977 12.4612L14.6006 12.4512L14.6031 12.4409L14.6061 12.4309L14.6086 12.4204L14.6115 12.4104L14.6141 12.4004L14.617 12.3901L14.6195 12.3806L14.6246 12.3608L14.6271 12.3508L14.6292 12.3406L14.6313 12.3311L14.6338 12.3213L14.6354 12.3113L14.6376 12.3008L14.6392 12.291L14.6414 12.281L14.6439 12.2705L14.6459 12.26L14.6481 12.25L14.6497 12.24L14.6514 12.2297L14.6531 12.2197L14.6548 12.2097L14.6564 12.1992L14.6581 12.1887L14.6598 12.1785L14.6611 12.1685L14.6632 12.158L14.6649 12.1475L14.6661 12.137L14.6674 12.1265L14.6691 12.116L14.6707 12.1055L14.6724 12.0945L14.6762 12.0635L14.6779 12.053L14.6787 12.0425L14.68 12.032L14.6812 12.0215L14.6838 11.99L14.6846 11.9795L14.685 11.969L14.6867 11.948L14.6876 11.937L14.6879 11.9265L14.6884 11.916L14.6892 11.9055L14.6896 11.895L14.6901 11.885L14.6909 11.864L14.6913 11.8535L14.6917 11.844V11.8318L14.6921 11.822V5.96021L14.6917 5.95044L14.6913 5.94043L14.6909 5.93018L14.6905 5.91968L14.6892 5.88965L14.6888 5.87988L14.6879 5.86938L14.6876 5.85889L14.6871 5.84888L14.6863 5.83862L14.6846 5.8186L14.6838 5.80859L14.6825 5.79834L14.6812 5.78833L14.6804 5.77832L14.6791 5.76831L14.6779 5.75854L14.6771 5.74854L14.6754 5.73828L14.6729 5.71875L14.6716 5.7085L14.6707 5.69897L14.6695 5.68799L14.6669 5.67065L14.6666 5.66821L14.664 5.65063L14.6636 5.64819L14.6606 5.63037L14.6602 5.62793L14.6573 5.61084L14.6569 5.60864L14.6539 5.59106L14.6535 5.58887L14.6501 5.57178L14.6464 5.55225L14.6459 5.55029L14.6426 5.53296L14.6422 5.53101L14.6342 5.49438L14.6338 5.49194L14.6296 5.47461L14.6287 5.47266L14.6249 5.45532L14.6241 5.45337L14.6199 5.43604L14.6195 5.43384L14.6149 5.41675L14.6141 5.41431L14.6099 5.39746L14.6094 5.39526L14.6048 5.37842L14.6039 5.37646L14.5994 5.35962L14.5985 5.35742L14.5934 5.34082L14.5927 5.33862L14.5876 5.32178L14.5872 5.31982L14.5822 5.30298L14.5813 5.30078L14.5762 5.28442L14.5759 5.28247L14.5704 5.26562L14.5695 5.26343L14.5641 5.24707L14.5632 5.24487L14.5578 5.22852L14.5569 5.22656L14.5515 5.21021L14.5507 5.20801L14.5439 5.18945L14.5376 5.1731L14.5368 5.17114L14.5305 5.15479L14.5297 5.15259L14.5234 5.13623L14.5225 5.13403L14.5162 5.11816L14.5154 5.11597L14.5091 5.09961L14.5082 5.09766L14.5015 5.08154L14.5007 5.07959L14.494 5.06348L14.4931 5.06152L14.486 5.04541L14.4851 5.04346L14.478 5.02759L14.4772 5.02539L14.47 5.00952L14.4692 5.00732L14.462 4.99146L14.4608 4.98926L14.4532 4.97363L14.4524 4.97168L14.4444 4.95605L14.4435 4.9541L14.436 4.93799L14.4348 4.93628L14.4268 4.9209L14.4259 4.9187L14.418 4.90308L14.4171 4.90112L14.4087 4.8855L14.4079 4.88354L14.3995 4.86841L14.3982 4.86621L14.3898 4.85107L14.3885 4.84912L14.3802 4.83398L14.3789 4.83179L14.3705 4.81665L14.3693 4.81494L14.3604 4.7998L14.3592 4.79785L14.3503 4.78296L14.3491 4.78101L14.3398 4.76636L14.3386 4.76416L14.3298 4.74951L14.3285 4.74731L14.3193 4.73267L14.318 4.73096L14.3083 4.71631L14.3071 4.7146L14.2979 4.70044L14.2966 4.69873L14.2874 4.68433L14.2861 4.68237L14.2764 4.66772L14.2752 4.66553L14.2655 4.65112L14.2643 4.64917L14.2542 4.63477L14.2529 4.63306L14.2429 4.6189L14.2416 4.61719L14.2315 4.60303L14.2302 4.60083L14.2197 4.58691L14.2185 4.58521L14.208 4.57104L14.2067 4.56885L14.1962 4.55518L14.195 4.55347L14.1845 4.53955L14.1832 4.53784L14.1727 4.52393L14.1714 4.52222L14.1605 4.50854L14.1589 4.50684L14.1479 4.49341L14.1467 4.4917L14.1357 4.47827L14.1341 4.47656L14.1227 4.46313L14.1215 4.46143L14.1102 4.448L14.1085 4.44629L14.0972 4.43286L14.0955 4.43115L14.0837 4.41821L14.0825 4.4165L14.0711 4.40308L14.0694 4.40137L14.0577 4.38843L14.056 4.38672L14.0443 4.37402L14.0425 4.37231L14.0308 4.35986L14.0291 4.35815L14.0173 4.34546L14.0157 4.34375L14.0035 4.3313L14.0023 4.32959L13.9901 4.31689L13.9884 4.31519L13.9762 4.30273L13.9745 4.30103L13.9623 4.28882L13.9607 4.28711L13.9481 4.2749L13.9464 4.27319L13.9338 4.26123L13.9321 4.25952L13.9191 4.24731L13.9174 4.24609L13.9048 4.23438L13.9031 4.23291L13.8901 4.2207L13.8884 4.21948L13.8754 4.20776L13.8737 4.20654L13.8607 4.19482L13.8591 4.1936L13.8456 4.18213L13.8439 4.18042L13.8305 4.16919L13.8288 4.16797L13.8149 4.15649L13.8133 4.15527L13.7994 4.14404L13.7977 4.14282L13.7843 4.13135L13.7827 4.13013L13.7679 4.11792L13.7595 4.11133L13.752 4.10498L13.744 4.09863L13.7356 4.09277L13.7272 4.08643L13.7192 4.08008L13.7112 4.07373L13.7032 4.06787L13.6953 4.0625L13.6873 4.05664L13.6793 4.05127L13.6713 4.04565L13.663 4.03979L13.647 4.02808L13.639 4.02271L13.631 4.01709L13.623 4.01172L13.6147 4.00635L13.6058 4.00073L13.5978 3.99536L13.5895 3.9895L13.5811 3.98389L13.5723 3.979L13.5638 3.97339L13.5551 3.96802L13.5466 3.96289L13.5382 3.95801L13.5298 3.95288L13.5214 3.94751L13.5131 3.94189L13.5042 3.93652L13.4954 3.93115L13.4874 3.92651L8.729 1.1311L8.71893 1.12476L8.7088 1.11841L8.69873 1.11255L8.68823 1.10669L8.67816 1.10034L8.66809 1.09424L8.65717 1.08838L8.64709 1.08276L8.63617 1.07739L8.62524 1.07153L8.61475 1.06592L8.60425 1.06055L8.59332 1.05542L8.58325 1.05005L8.57275 1.04468L8.56226 1.03906L8.55133 1.03418L8.54047 1.02905L8.52954 1.02393L8.51904 1.01904L8.50854 1.01392L8.49762 1.00879L8.48669 1.00391L8.4762 0.998779L8.45435 0.989502L8.44385 0.984863L8.43292 0.980469L8.41193 0.971191L8.401 0.966553L8.38971 0.961914L8.37836 0.957275L8.36743 0.952637L8.35651 0.948486L8.34558 0.943848L8.33466 0.939697L8.32336 0.935303L8.31244 0.931152L8.30151 0.92749L8.29059 0.92334L8.27924 0.918945L8.26831 0.914795L8.25745 0.911133L8.24695 0.907227L8.23602 0.903564L8.22467 0.899658L8.21375 0.895996L8.20239 0.89209L8.1911 0.888428L8.1684 0.881592L8.15747 0.87793L8.14612 0.874023L8.13483 0.87085L8.12347 0.867432L8.11255 0.864014L8.1012 0.860596L8.0899 0.857422L8.07855 0.854004L8.05585 0.848145L8.04413 0.845459L8.0332 0.842529L8.02185 0.8396L8.01093 0.83667L7.99957 0.83374L7.98828 0.830811L7.97693 0.828369L7.966 0.825439L7.95465 0.822998L7.94373 0.820312L7.93201 0.817871L7.92065 0.814941L7.90973 0.8125L7.89795 0.809814L7.88666 0.807861L7.87531 0.805664L7.86438 0.803467L7.8526 0.801514L7.84131 0.799316L7.82996 0.797607L7.8186 0.795166L7.80725 0.792969L7.79596 0.791504L7.73926 0.782959L7.72748 0.781006L7.71613 0.779297L7.70441 0.778076L7.69348 0.776611L7.66998 0.77417L7.65863 0.772949L7.64771 0.771729L7.63593 0.770508L7.62421 0.769043L7.61243 0.768311L7.60107 0.767578L7.58978 0.766602L7.578 0.765869L7.56622 0.764893L7.5545 0.76416L7.54358 0.763184L7.5318 0.762451L7.52087 0.761475L7.50958 0.760742L7.4978 0.76001L7.46381 0.758545L7.45245 0.758301L7.4292 0.757324L7.41882 0.75708H7.35944L7.34906 0.756836ZM4.1322 13.1956V4.49414H5.9527V7.66357H8.97253V4.49414H10.7983V13.1956H8.97253V9.39087H5.9527V13.1956H4.1322Z"></path>
  <path fill-rule="evenodd" clip-rule="evenodd" d="M23.3394 0.646484H23.3277L23.326 0.643311H23.242L23.2302 0.643799L23.2184 0.644043L23.2067 0.644531L23.1945 0.64502L23.1828 0.645508L23.171 0.64624L23.1592 0.646729L23.1475 0.646973L23.1357 0.647949L23.124 0.648682L23.1127 0.649658L23.1009 0.650391L23.0891 0.651367L23.0774 0.6521L23.0656 0.653076L23.0421 0.654541L23.0308 0.656006L23.0073 0.658447L22.9733 0.662109L22.9619 0.663574L22.9506 0.664795L22.9388 0.666504L22.9275 0.667725L22.9161 0.669434L22.9044 0.670654L22.8926 0.672363L22.8809 0.674316L22.8695 0.676514L22.8578 0.678223L22.8464 0.680176L22.8355 0.682373L22.8242 0.68457L22.8124 0.686523L22.8011 0.688721L22.7897 0.690674L22.7662 0.695068L22.7435 0.699951L22.7322 0.702637L22.7209 0.705566L22.7095 0.708252L22.6982 0.711182L22.6865 0.714111L22.6751 0.717041L22.6524 0.722412L22.6411 0.725342L22.6298 0.728271L22.6184 0.731445L22.6071 0.734375L22.5958 0.737793L22.5848 0.741211L22.5735 0.744629L22.5508 0.750488L22.5395 0.753906L22.5286 0.756836L22.5172 0.76001L22.5059 0.763916L22.4946 0.767334L22.4836 0.770508L22.4727 0.774414L22.4614 0.777832L22.4504 0.781494L22.4391 0.7854L22.4278 0.789062L22.4169 0.792725L22.4055 0.796631L22.3942 0.800293L22.3829 0.803711L22.3715 0.807861L22.3602 0.812256L22.3492 0.816406L22.3386 0.820557L22.3272 0.824707L22.3163 0.828857L22.3049 0.833252L22.2936 0.837402L22.2827 0.842041L22.2714 0.84668L22.2604 0.85083L22.2386 0.860107L22.2281 0.864746L22.2172 0.869385L22.2063 0.873779L22.1844 0.883057L22.1735 0.888184L22.1626 0.892822L22.1517 0.897705L22.1412 0.902832L22.1302 0.907959L22.1193 0.912842L22.1085 0.917969L22.0975 0.923096L22.0757 0.933838L22.0656 0.939453L22.0551 0.944336L22.0442 0.950195L22.0337 0.955811L22.0232 0.961182L22.0127 0.966797L22.0018 0.972656L21.9908 0.978027L21.9803 0.983398L21.9701 0.989258L21.9596 0.995117L21.9285 1.01318L21.9075 1.02588L21.8865 1.0376L21.876 1.04395L21.866 1.05029L21.8563 1.05615L17.8183 3.54663L17.8069 3.55371L17.7952 3.56079L17.7834 3.56836L17.7717 3.57568L17.7599 3.58276L17.7482 3.59033L17.7364 3.59741L17.725 3.60547L17.7137 3.61304L17.7028 3.62061L17.6919 3.62817L17.6805 3.63574L17.6696 3.64355L17.6587 3.65161L17.6478 3.65918L17.6368 3.66724L17.6255 3.6748L17.6142 3.68262L17.5923 3.69873L17.581 3.70654L17.5701 3.71509L17.5483 3.73169L17.5369 3.74023L17.526 3.74854L17.5152 3.75708L17.5043 3.76538L17.4938 3.77344L17.4833 3.78174L17.4623 3.79932L17.4518 3.80835L17.4413 3.81714L17.4308 3.82495L17.4203 3.83374L17.4099 3.84277L17.3997 3.85181L17.3896 3.86084L17.3792 3.86963L17.3288 3.91357L17.3087 3.93213L17.2985 3.94141L17.2885 3.95068L17.2788 3.95972L17.2692 3.96899L17.2591 3.97827L17.2494 3.98755L17.2301 4.0061L17.2205 4.01514L17.2112 4.0249L17.202 4.03467L17.1923 4.0437L17.1827 4.05347L17.173 4.06323L17.1633 4.07275L17.1541 4.08252L17.1448 4.09204L17.1356 4.10181L17.1264 4.11133L17.1171 4.12158L17.1079 4.13159L17.0991 4.1416L17.0898 4.15161L17.0811 4.16138L17.0726 4.17139L17.0638 4.18164L17.055 4.19165L17.0462 4.20166L17.0378 4.21167L17.029 4.22192L17.0201 4.23193L17.0114 4.24194L17.0029 4.2522L16.9945 4.2627L16.9861 4.27319L16.9777 4.28369L16.9697 4.2937L16.9614 4.3042L16.9525 4.3147L16.9442 4.3252L16.9362 4.33569L16.9277 4.34619L16.9198 4.35669L16.9114 4.36719L16.8962 4.38818L16.8879 4.39868L16.8719 4.41968L16.8644 4.43042L16.8568 4.44092L16.8492 4.4519L16.8341 4.4729L16.8265 4.48389L16.819 4.49487L16.8119 4.50562L16.8047 4.5166L16.7972 4.52759L16.79 4.53857L16.7825 4.54932L16.7749 4.5603L16.7678 4.57129L16.7602 4.58203L16.7533 4.59351L16.7462 4.60474L16.7394 4.61621L16.7319 4.62744L16.7247 4.63843L16.718 4.64966L16.7113 4.66113L16.7042 4.67285L16.6974 4.68408L16.6903 4.69556L16.6836 4.70679L16.6769 4.71851L16.6702 4.72998L16.6635 4.74219L16.6567 4.75342L16.6504 4.76489L16.6437 4.77686L16.6374 4.78833L16.6311 4.80005L16.6248 4.81226L16.6189 4.82397L16.6126 4.83569L16.6068 4.84741L16.6009 4.85962L16.5945 4.87134L16.5883 4.8833L16.5815 4.89502L16.5757 4.90674L16.5698 4.91846L16.5639 4.93066L16.5585 4.94238L16.553 4.95459L16.5471 4.96631L16.5413 4.97852L16.5358 4.99072L16.5303 5.00293L16.5248 5.01465L16.519 5.02637L16.5135 5.03857L16.5081 5.05029L16.5026 5.06299L16.4976 5.0752L16.4921 5.08691L16.4871 5.09863L16.4816 5.11133L16.4766 5.12378L16.4716 5.13599L16.4665 5.14868L16.4614 5.16113L16.4564 5.17383L16.4514 5.18628L16.4464 5.19897L16.4413 5.21118L16.4367 5.22363L16.4274 5.24902L16.4228 5.26196L16.4182 5.27466L16.4136 5.2876L16.4089 5.30029L16.4044 5.31323L16.3997 5.32544L16.3955 5.33765L16.3913 5.3501L16.3871 5.36279L16.3829 5.37524L16.3792 5.38794L16.3749 5.40063L16.3674 5.42651L16.3632 5.43921L16.3594 5.45215L16.3557 5.46484L16.3481 5.49072L16.3447 5.50342L16.3409 5.51636L16.3372 5.52905L16.3338 5.54199L16.33 5.55542L16.3271 5.56885L16.3204 5.5957L16.3174 5.60889L16.3141 5.62134L16.3107 5.63477L16.3077 5.64795L16.3048 5.66138L16.3015 5.6748L16.2985 5.68823L16.296 5.70117L16.2931 5.7146L16.2901 5.72803L16.2876 5.74146L16.2847 5.75464L16.2826 5.76782L16.28 5.78125L16.2775 5.79468L16.275 5.80835L16.2729 5.82178L16.2704 5.83521L16.2683 5.84839L16.2662 5.86182L16.2641 5.87524L16.2616 5.88867L16.259 5.90161L16.2549 5.92847L16.2532 5.94214L16.2515 5.95557L16.2498 5.96899L16.2477 5.98218L16.2456 5.99585L16.244 6.00928L16.2418 6.02246L16.2402 6.03589L16.2389 6.04907L16.2372 6.06299L16.2355 6.07666L16.2343 6.09009L16.233 6.10254V6.10474L16.2318 6.11816L16.2305 6.13135L16.2292 6.14502L16.228 6.15845L16.2271 6.17188L16.2263 6.1853L16.2255 6.19873L16.2246 6.21265L16.2238 6.23877L16.2234 6.25195L16.223 6.26562L16.2221 6.2793L16.2204 6.33423L16.22 6.3479L16.2188 6.38892L16.2183 6.40161V11.5146L16.2192 11.5391L16.2196 11.5508L16.22 11.5618L16.2204 11.5752L16.2208 11.5872L16.2213 11.5979L16.2217 11.6101L16.2225 11.6223L16.223 11.6345L16.2238 11.6467L16.2246 11.6584L16.2263 11.6829L16.2271 11.6946L16.2284 11.7068L16.2297 11.7185L16.2305 11.7307L16.2313 11.7429L16.2339 11.7668L16.2355 11.7781L16.2368 11.7898L16.238 11.8015L16.2393 11.812L16.241 11.8235L16.2427 11.8352L16.244 11.8462L16.246 11.8584L16.2477 11.8704L16.2494 11.8823L16.2511 11.8928L16.2527 11.9041L16.2545 11.9163L16.2565 11.9275L16.2586 11.9392L16.2603 11.9512L16.2624 11.9629L16.2641 11.9751L16.2662 11.9873L16.2687 11.999L16.2712 12.0107L16.2733 12.0212L16.2759 12.033L16.2784 12.0442L16.2805 12.0562L16.283 12.0679L16.2855 12.0791L16.2885 12.0908L16.2914 12.1028L16.2943 12.1145L16.2969 12.1262L16.2998 12.1375L16.3027 12.1492L16.3057 12.1611L16.3086 12.1729L16.3111 12.1846L16.3137 12.1963L16.3166 12.208L16.3199 12.219L16.3258 12.2424L16.3292 12.2539L16.3325 12.2651L16.3359 12.2766L16.3392 12.2878L16.3426 12.2988L16.3459 12.3101L16.3497 12.321L16.3535 12.3323L16.3569 12.3438L16.3602 12.3555L16.364 12.3667L16.3678 12.3782L16.3716 12.3894L16.3754 12.4009L16.3792 12.4121L16.3829 12.4236L16.3871 12.4348L16.3909 12.4458L16.3947 12.457L16.3989 12.468L16.4031 12.479L16.4073 12.4902L16.4115 12.5017L16.4157 12.5125L16.4199 12.5239L16.4241 12.5347L16.4325 12.5566L16.4371 12.5679L16.4464 12.5889L16.4506 12.5999L16.4551 12.6104L16.4598 12.6216L16.4644 12.6321L16.469 12.6426L16.4783 12.6646L16.4833 12.6755L16.4883 12.6863L16.4933 12.6973L16.498 12.7078L16.5031 12.7188L16.5081 12.7295L16.5131 12.7405L16.5181 12.751L16.5232 12.7615L16.5282 12.772L16.5333 12.783L16.5387 12.7939L16.5438 12.804L16.5492 12.8145L16.5547 12.8245L16.5601 12.835L16.5656 12.845L16.571 12.8552L16.5765 12.8652L16.582 12.8752L16.5878 12.8855L16.5933 12.8955L16.5992 12.9055L16.605 12.916L16.611 12.926L16.6168 12.9363L16.6227 12.9463L16.629 12.9568L16.6349 12.9666L16.6466 12.9866L16.6525 12.9963L16.6642 13.0164L16.6702 13.0261L16.6827 13.0461L16.689 13.0559L16.6957 13.0654L16.7021 13.0752L16.7087 13.085L16.7154 13.095L16.7217 13.1045L16.7284 13.1147L16.7351 13.1243L16.7422 13.1335L16.749 13.1433L16.7559 13.1523L16.7626 13.1621L16.7698 13.1719L16.7765 13.1809L16.7908 13.2004L16.7979 13.21L16.8046 13.2192L16.8118 13.2288L16.8189 13.2385L16.826 13.2476L16.8328 13.2568L16.8403 13.2661L16.8478 13.2754L16.8621 13.2939L16.8697 13.303L16.8768 13.312L16.8848 13.321L16.8928 13.3303L16.9003 13.3396L16.9155 13.3572L16.9235 13.366L16.9314 13.375L16.939 13.3838L16.955 13.4014L16.9629 13.4102L16.9789 13.4277L16.9868 13.4365L16.9948 13.4453L17.0032 13.4543L17.0112 13.4631L17.0196 13.4714L17.0276 13.4797L17.0359 13.4883L17.0439 13.4971L17.0519 13.5054L17.0603 13.5144L17.0771 13.531L17.0855 13.5391L17.0939 13.5474L17.1023 13.5559L17.1107 13.5637L17.1196 13.5718L17.1279 13.5803L17.1368 13.5881L17.1456 13.5962L17.1544 13.6042L17.1632 13.6121L17.172 13.6206L17.1808 13.6284L17.1896 13.6365L17.1989 13.6445L17.2077 13.6523L17.2166 13.6599L17.2258 13.668L17.235 13.6755L17.2443 13.6836L17.2535 13.6912L17.2626 13.699L17.2719 13.7065L17.2811 13.7141L17.2903 13.7222L17.2996 13.7297L17.3088 13.7378L17.3181 13.7454L17.3373 13.76L17.3466 13.7676L17.3563 13.7751L17.3755 13.7903L17.3848 13.7979L17.3945 13.8049L17.4041 13.8125L17.4138 13.8196L17.4238 13.8271L17.4335 13.8342L17.4436 13.8413L17.4532 13.8481L17.4725 13.8623L17.5024 13.8826L17.5125 13.8892L17.5225 13.896L17.5326 13.9031L17.5422 13.9094L17.5524 13.9163L17.5624 13.9229L17.5826 13.9355L17.6027 13.9478L17.6233 13.9597L17.6334 13.9666L17.6434 13.9724L17.6544 13.9792L17.6644 13.9851L22.0647 16.5552L22.0735 16.5608L22.0823 16.5657L22.0912 16.5708L22.1004 16.5759L22.1093 16.5808L22.1185 16.5864L22.1277 16.5918L22.1365 16.5964L22.1458 16.6016L22.1546 16.6064L22.1634 16.6111L22.1722 16.6157L22.1815 16.6208L22.1907 16.6255L22.2 16.6301L22.2087 16.635L22.218 16.6396L22.2272 16.6443L22.236 16.6489L22.2457 16.6531L22.2549 16.6577L22.2642 16.6619L22.273 16.6663L22.2825 16.6704L22.2917 16.6746L22.311 16.6829L22.3199 16.6873L22.3291 16.6909L22.3383 16.6948L22.3476 16.699L22.3572 16.7026L22.3669 16.7065L22.3765 16.7107L22.3862 16.7144L22.3954 16.7183L22.4051 16.7219L22.4147 16.7258L22.424 16.7295L22.4337 16.7334L22.4429 16.7368L22.4526 16.74L22.4622 16.7439L22.4719 16.7473L22.4815 16.7505L22.4912 16.7539L22.5004 16.7573L22.5101 16.7607L22.5193 16.7637L22.5286 16.7668L22.5378 16.7698L22.5479 16.7732L22.5643 16.7788L22.5663 16.7791L22.5831 16.7847L22.5853 16.7849L22.6021 16.79L22.6046 16.7905L22.6213 16.7954L22.6235 16.7959L22.6407 16.801L22.6428 16.8018L22.66 16.8064L22.6621 16.8069L22.6793 16.8115L22.6814 16.8123L22.6986 16.8164L22.7011 16.8169L22.7183 16.821L22.7209 16.8215L22.7381 16.8257L22.7402 16.8262L22.7574 16.8303L22.7595 16.8308L22.7772 16.8345L22.7792 16.835L22.7964 16.8386L22.7986 16.8391L22.8158 16.8425L22.8183 16.843L22.8355 16.8462L22.8376 16.8467L22.8548 16.8501L22.8569 16.8506L22.8741 16.8538L22.8762 16.8542L22.8939 16.8572L22.896 16.8577L22.9136 16.8606L22.9157 16.8611L22.9329 16.8635L22.9351 16.864L22.9523 16.8665L22.9543 16.8669L22.972 16.8694L22.9741 16.8699L22.9917 16.8723H22.9938L23.0115 16.8745H23.0135L23.0308 16.8765L23.0328 16.877L23.0505 16.8792L23.0526 16.8794L23.0703 16.8816L23.0723 16.8821L23.09 16.8835H23.0921L23.1097 16.8853L23.1118 16.8857L23.1295 16.887H23.1315L23.1492 16.8882H23.1513L23.1689 16.8896L23.171 16.8899L23.1887 16.8909H23.1907L23.2084 16.8916H23.2105L23.2281 16.8921L23.2302 16.8926L23.2479 16.8931H23.2499L23.2676 16.8936H23.2701L23.2878 16.8938H23.3298L23.3474 16.8936H23.3499L23.3676 16.8933L23.3852 16.8923H23.3873L23.4045 16.8921L23.4221 16.8911L23.4243 16.8909L23.4418 16.8901H23.4444L23.462 16.8894L23.4645 16.8889L23.4822 16.8879L23.4843 16.8877L23.5019 16.8865H23.504L23.5217 16.8848H23.5237L23.5414 16.8831L23.5439 16.8826L23.5615 16.8809H23.5637L23.5813 16.8789L23.5834 16.8784L23.601 16.8762L23.6031 16.876L23.6207 16.8738L23.6229 16.8733L23.6401 16.8708H23.6422L23.6594 16.8684L23.6615 16.8679L23.6787 16.8655H23.6812L23.6984 16.8628L23.7005 16.8623L23.7181 16.8594L23.7203 16.8591L23.7379 16.8562L23.74 16.8557L23.7576 16.8523L23.7597 16.8518L23.777 16.8489L23.7791 16.8486L23.7967 16.8452L23.7988 16.8447L23.816 16.8411L23.8181 16.8406L23.8353 16.8369L23.8374 16.8364L23.8546 16.8325L23.8572 16.8323L23.8744 16.8279L23.8769 16.8276L23.8941 16.8235L23.8966 16.8225L23.9138 16.8184L23.916 16.8179L23.9332 16.8137L23.9352 16.8132L23.9525 16.8086L23.9546 16.8079L23.9718 16.8032L23.9743 16.8027L23.9911 16.7981L23.9937 16.7979L24.0109 16.7927L24.0129 16.7922L24.0314 16.7869L24.0411 16.7844L24.0511 16.781L24.0612 16.7781L24.0709 16.7747L24.0806 16.7712L24.0902 16.7678L24.0994 16.7646L24.1091 16.7617L24.1276 16.7549L24.1368 16.7515L24.1465 16.7478L24.1557 16.7444L24.1653 16.7407L24.175 16.7373L24.1843 16.7339L24.1935 16.7302L24.2023 16.7263L24.212 16.7229L24.2212 16.7192L24.2305 16.7153L24.2401 16.7117L24.2493 16.708L24.259 16.7041L24.2682 16.7004L24.2779 16.696L24.2875 16.6919L24.2964 16.6882L24.3056 16.6838L24.3145 16.6797L24.3237 16.6755L24.3333 16.6714L24.3426 16.6672L24.3518 16.6628L24.361 16.6587L24.3707 16.6545L24.3795 16.6504L24.3892 16.6458L24.398 16.6416L24.4072 16.637L24.4165 16.6323L24.4257 16.6277L24.4345 16.6235L24.4434 16.6189L24.4526 16.6143L24.4619 16.6091L24.4799 16.5991L24.4887 16.5938L24.4979 16.5891L24.5068 16.5845L24.5147 16.5798L29.3853 13.8672L29.3941 13.8621L29.4037 13.8567L29.413 13.8513L29.4222 13.8457L29.4407 13.8345L29.4495 13.8289L29.4584 13.8235L29.4672 13.8181L29.476 13.8123L29.4848 13.8066L29.4941 13.8008L29.5029 13.7954L29.5121 13.79L29.5209 13.7844L29.5297 13.7791L29.539 13.7732L29.5478 13.7673L29.5734 13.7495L29.5818 13.7434L29.5911 13.7375L29.5999 13.7314L29.6087 13.7253L29.6175 13.7195L29.6263 13.7134L29.6436 13.7014L29.6519 13.6956L29.6603 13.6892L29.6692 13.6829L29.6776 13.6765L29.6864 13.6702L29.6943 13.6636L29.7032 13.6567L29.712 13.6501L29.7204 13.6433L29.7284 13.6367L29.7363 13.6304L29.7443 13.6235L29.7523 13.6169L29.7603 13.6101L29.7682 13.6035L29.7762 13.5972L29.7842 13.5901L29.7922 13.5833L29.8002 13.5767L29.8082 13.5698L29.8161 13.5627L29.8241 13.5564L29.8321 13.5493L29.8401 13.5425L29.848 13.5354L29.856 13.5283L29.8712 13.5142L29.8787 13.5068L29.8867 13.4993L29.9094 13.478L29.9169 13.4707L29.9244 13.4631L29.9396 13.449L29.9471 13.4414L29.9828 13.4036L29.9904 13.396L30.0047 13.3809L30.0118 13.3733L30.0403 13.343L30.0471 13.3357L30.0538 13.3281L30.0609 13.3206L30.0681 13.3125L30.0744 13.3044L30.0807 13.2966L30.0874 13.2886L30.0937 13.2805L30.1004 13.2727L30.1138 13.2566L30.1201 13.2485L30.1269 13.2407L30.1336 13.2327L30.1399 13.2246L30.1462 13.2168L30.1525 13.2087L30.1592 13.2004L30.1655 13.1919L30.1718 13.1841L30.1781 13.1755L30.1848 13.1677L30.1907 13.1592L30.1966 13.1509L30.2029 13.1423L30.2087 13.134L30.215 13.1257L30.2213 13.1167L30.2272 13.1084L30.2331 13.1001L30.239 13.0911L30.2444 13.0828L30.2499 13.0745L30.2554 13.0659L30.2608 13.0571L30.2663 13.0483L30.2722 13.04L30.2776 13.0315L30.2831 13.0227L30.2885 13.0139L30.2944 13.0046L30.3003 12.9963L30.3062 12.9875L30.3116 12.9783L30.3167 12.9695L30.3217 12.9607L30.3267 12.9514L30.3322 12.9426L30.3376 12.9338L30.3427 12.9248L30.3481 12.916L30.3536 12.9067L30.3586 12.8977L30.3637 12.8884L30.3687 12.8796L30.3734 12.8704L30.3784 12.8611L30.383 12.8523L30.3881 12.843L30.3935 12.8337L30.4028 12.8152L30.4073 12.8064L30.412 12.7974L30.4166 12.7881L30.4216 12.7788L30.4263 12.7695L30.4305 12.7607L30.4351 12.7515L30.4397 12.7422L30.4439 12.7327L30.4485 12.7239L30.4531 12.7141L30.4615 12.6956L30.4658 12.686L30.4699 12.6763L30.4741 12.667L30.4783 12.6575L30.4825 12.6477L30.4868 12.6377L30.4905 12.6279L30.4943 12.6184L30.498 12.6086L30.5018 12.5991L30.5056 12.5894L30.5094 12.5793L30.5132 12.5701L30.517 12.5601L30.5208 12.5503L30.5245 12.5408L30.5283 12.531L30.535 12.511L30.5388 12.5007L30.5455 12.4807L30.5489 12.4709L30.5522 12.4614L30.5556 12.4512L30.559 12.4412L30.5623 12.4314L30.5724 12.4014L30.5757 12.3911L30.5787 12.3816L30.5816 12.3713L30.5846 12.3613L30.5896 12.3413L30.5925 12.3311L30.5951 12.321L30.598 12.311L30.6005 12.301L30.603 12.2905L30.6081 12.2703L30.611 12.2603L30.6135 12.2498L30.6186 12.2295L30.6207 12.2195L30.6228 12.209L30.6253 12.199L30.6278 12.1885L30.632 12.1682L30.6341 12.1577L30.6367 12.1472L30.6387 12.1372L30.6404 12.1267L30.6425 12.1162L30.6442 12.106L30.6454 12.0955L30.6472 12.0854L30.6492 12.075L30.6509 12.0645L30.6522 12.054L30.6572 12.0125L30.6589 12.002L30.6606 11.9915L30.6622 11.981L30.6648 11.96L30.6673 11.9385L30.6686 11.928L30.6698 11.9175L30.6707 11.9075L30.6715 11.8965L30.6727 11.886L30.6736 11.8755L30.6744 11.8645L30.6749 11.854L30.6757 11.8433L30.6761 11.8323L30.6774 11.8213L30.6782 11.8108L30.6791 11.7896L30.6799 11.7791L30.6812 11.7478L30.6816 11.7371L30.682 11.7278V11.7161L30.6824 11.7058L30.6828 11.6968V5.84814L30.6824 5.83936V5.82788L30.6812 5.79785L30.6807 5.7876L30.6803 5.77808L30.6799 5.76758L30.6791 5.75024V5.7478L30.6778 5.73022L30.6774 5.72754L30.6761 5.71045L30.6757 5.70825L30.674 5.69067V5.68823L30.6723 5.67041L30.6719 5.66846L30.6702 5.65088L30.6698 5.64868L30.6677 5.63135V5.62891L30.6656 5.61182L30.6652 5.60913L30.6631 5.59155L30.6627 5.58911L30.6602 5.57178L30.6597 5.56982L30.6572 5.55249L30.6568 5.55005L30.6543 5.53271L30.6539 5.53027L30.6513 5.51294L30.6509 5.51099L30.6479 5.49365V5.49121L30.645 5.47388L30.6446 5.47144L30.6412 5.45435L30.6375 5.43481L30.6371 5.43286L30.6329 5.41357L30.6291 5.39673L30.6287 5.39453L30.6249 5.37744L30.624 5.37524L30.6202 5.3584L30.6198 5.35596L30.6157 5.33911L30.6152 5.33716L30.611 5.32031L30.6106 5.31812L30.6064 5.30151L30.606 5.29932L30.6018 5.28247L30.601 5.28052L30.5963 5.26367L30.5955 5.26147L30.5909 5.24512L30.59 5.24292L30.5854 5.22632L30.585 5.22412L30.58 5.20776L30.5791 5.20557L30.5741 5.18921L30.5737 5.18726L30.5686 5.1709L30.5677 5.1687L30.5623 5.15234L30.5615 5.15015L30.556 5.13379L30.5552 5.13184L30.5497 5.11548L30.5489 5.11328L30.5434 5.09692L30.5367 5.07837L30.5358 5.07642L30.53 5.0603L30.5291 5.05835L30.5233 5.04224L30.5224 5.04028L30.5161 5.02417L30.5153 5.02222L30.509 5.0061L30.5081 5.00415L30.5014 4.98804L30.5006 4.98608L30.4939 4.96997L30.4926 4.96802L30.4859 4.95215L30.485 4.94995L30.4783 4.93408L30.4775 4.93188L30.4708 4.91626L30.4695 4.91431L30.4624 4.89868L30.4615 4.89648L30.454 4.8811L30.4531 4.87891L30.446 4.86353L30.4451 4.86133L30.4376 4.8457L30.4368 4.84375L30.4292 4.82812L30.4283 4.82642L30.4204 4.81104L30.4196 4.80884L30.412 4.7937L30.4107 4.7915L30.4028 4.77661L30.4019 4.77441L30.3935 4.75928L30.3926 4.75708L30.3847 4.74219L30.3834 4.74048L30.3751 4.72534L30.3738 4.72314L30.3649 4.70801L30.3637 4.70605L30.3553 4.69116L30.3541 4.6897L30.3452 4.6748L30.3444 4.67285L30.3356 4.6582L30.3343 4.65601L30.3255 4.6416L30.3242 4.63965L30.315 4.625L30.3137 4.6228L30.3045 4.60815L30.3032 4.60596L30.294 4.5918L30.2927 4.5896L30.2835 4.57544L30.2822 4.57324L30.2726 4.55908L30.2713 4.55737L30.2617 4.54297L30.2604 4.54102L30.2507 4.52661L30.2495 4.52466L30.2398 4.51025L30.2386 4.50854L30.2285 4.49463L30.2272 4.49316L30.2172 4.47925L30.2159 4.47754L30.2058 4.46362L30.2041 4.46191L30.194 4.44824L30.1928 4.44653L30.1823 4.43262L30.181 4.43091L30.1705 4.41748L30.1693 4.41528L30.1588 4.40186L30.1575 4.40015L30.1466 4.38672L30.1453 4.38477L30.1344 4.37183L30.1328 4.37012L30.1214 4.35693L30.1201 4.35522L30.1093 4.34229L30.108 4.34058L30.0966 4.32764L30.095 4.32593L30.0836 4.31299L30.0823 4.31128L30.071 4.29834L30.0698 4.29663L30.058 4.28345L30.0563 4.28174L30.0446 4.26929L30.0429 4.26758L30.0311 4.25488L30.0294 4.25317L30.0177 4.24072L30.016 4.23901L30.0038 4.22632L30.0026 4.22485L29.9904 4.21265L29.9887 4.21094L29.9766 4.19873L29.9749 4.19702L29.9627 4.18481L29.961 4.18311L29.9484 4.1709L29.9467 4.16943L29.9346 4.15747L29.9329 4.15576L29.9203 4.14404L29.9186 4.14233L29.906 4.13062L29.9043 4.12939L29.8917 4.11768L29.89 4.11646L29.877 4.10498L29.8754 4.10376L29.8623 4.09253L29.8607 4.09131L29.8476 4.07983L29.8459 4.07861L29.8325 4.06738L29.8308 4.06592L29.8174 4.05469L29.8157 4.05298L29.8022 4.04199L29.8006 4.04077L29.7872 4.02979L29.7855 4.02856L29.772 4.01782L29.7704 4.01611L29.7565 4.00513L29.7548 4.00342L29.741 3.99292L29.7393 3.9917L29.7254 3.9812L29.7238 3.97998L29.7099 3.96948L29.7082 3.96826L29.6943 3.95776L29.6923 3.9563L29.678 3.94629L29.6759 3.94507L29.6616 3.93506L29.6599 3.93384L29.6456 3.92358L29.6436 3.92236L29.6288 3.91235L29.6268 3.91113L29.6112 3.90063L29.6028 3.89502L29.5944 3.88965L29.5864 3.88428L29.5784 3.87915L29.5705 3.87402L29.5621 3.86914L29.5457 3.85864L29.5373 3.85303L29.5289 3.84814L29.5205 3.84253L29.5117 3.83716L29.5029 3.83203L29.4953 3.82739L24.7209 1.01904L24.71 1.01294L24.6999 1.00659L24.6898 1.00024L24.6797 0.994385L24.6592 0.98291L24.6487 0.977539L24.6386 0.972168L24.6277 0.966553L24.6172 0.960693L24.6063 0.955322L24.5958 0.949951L24.5848 0.944336L24.5743 0.938477L24.5638 0.933105L24.5533 0.927979L24.5425 0.922852L24.5316 0.917969L24.5211 0.912842L24.5106 0.907959L24.5001 0.902344L24.4887 0.897705L24.4782 0.892822L24.4677 0.887695L24.4568 0.883057L24.4463 0.87793L24.4354 0.873535L24.424 0.868896L24.403 0.859619L24.3917 0.85498L24.3812 0.850342L24.3703 0.846191L24.3375 0.832275L24.3262 0.828125L24.3153 0.823975L24.304 0.81958L24.293 0.81543L24.2703 0.807129L24.2595 0.803223L24.2481 0.799561L24.2368 0.795654L24.2254 0.791992L24.2145 0.788086L24.2036 0.784424L24.1923 0.780518L24.1809 0.777344L24.17 0.773438L24.1591 0.769775L24.1477 0.766357L24.1364 0.762939L24.1251 0.759521L24.1137 0.756348L24.1028 0.75293L24.0915 0.749512L24.0801 0.746582L24.0692 0.743164L24.0579 0.73999L24.0465 0.737061L24.0356 0.734375L24.0243 0.731934L24.0129 0.729004L24.0016 0.726562L23.9907 0.723145L23.9798 0.720215L23.9684 0.717529L23.9571 0.7146L23.9462 0.71167L23.9348 0.709229L23.9235 0.706787L23.9122 0.70459L23.9008 0.702637L23.8899 0.700439L23.8785 0.697998L23.8668 0.695312L23.855 0.692871L23.8437 0.690674L23.8324 0.688965L23.821 0.687012L23.8097 0.684814L23.798 0.683105L23.7862 0.681641L23.7522 0.676514L23.7404 0.674805L23.7291 0.673584L23.7173 0.672363L23.706 0.671143L23.6946 0.669678L23.6837 0.668457L23.6724 0.667236L23.6371 0.663574L23.6258 0.662109L23.6144 0.660889L23.6031 0.660156L23.5914 0.65918L23.5796 0.658447L23.5682 0.657471L23.5569 0.656738L23.5334 0.654785L23.5225 0.654053L23.5107 0.653076L23.4767 0.650879L23.465 0.650391L23.4536 0.649658L23.4423 0.64917L23.4188 0.648193L23.407 0.647949L23.3957 0.647461L23.3614 0.646729H23.3497L23.3394 0.646484ZM20.1061 4.7749H21.8818V9.48511C21.8818 10.2324 21.9023 10.7168 21.9435 10.9385C22.0144 11.2942 22.1456 11.5417 22.4128 11.7571C22.6801 11.9727 22.9921 12.0337 23.4555 12.0337C23.9264 12.0337 24.084 11.9609 24.3232 11.7571C24.5622 11.553 24.7062 11.3596 24.7549 11.0627L24.7556 11.0581C24.804 10.7607 24.8838 10.2703 24.8838 9.58545V4.7749H26.6592V9.34277C26.6592 10.3867 26.6143 11.1243 26.5244 11.5552C26.4346 11.9863 26.2691 12.3501 26.0281 12.6467C25.787 12.9434 25.4645 13.1797 25.061 13.3557C24.657 13.5317 24.1305 13.6196 23.48 13.6196C22.6953 13.6196 22.0998 13.5237 21.6946 13.332C21.2889 13.1401 20.9686 12.8909 20.733 12.5845C20.4974 12.2781 20.3425 11.9565 20.2677 11.6206C20.1594 11.1223 20.1048 10.3867 20.1048 9.41382L20.1061 4.7749Z"></path>
  <path fill-rule="evenodd" clip-rule="evenodd" d="M39.4407 0.737549H39.4293L39.4285 0.746582H39.3605L39.3505 0.74707H39.3265L39.3152 0.747559L39.3038 0.747803L39.2925 0.748291L39.2808 0.749268L39.269 0.749512L39.2576 0.75L39.2467 0.750488L39.2358 0.751221L39.2245 0.752197L39.2127 0.75293L39.2018 0.753906L39.1904 0.755127L39.1791 0.755859L39.1678 0.756836L39.1564 0.757568L39.1451 0.758789L39.1338 0.759766L39.1224 0.760498L39.1111 0.761719L39.0997 0.762695L39.088 0.763916L39.0653 0.766357L39.0544 0.768066L39.0427 0.769287L39.0317 0.770508L39.0204 0.772217L39.009 0.773438L38.975 0.778564L38.9637 0.780762L38.9524 0.782715L38.941 0.784424L38.9297 0.786621L38.9183 0.788574L38.9075 0.790771L38.8961 0.792969L38.8848 0.79541L38.8738 0.797363L38.8625 0.800049L38.8512 0.80249L38.8398 0.804688L38.8285 0.807617L38.8171 0.810059L38.8058 0.812256L38.7945 0.815186L38.7836 0.818115L38.7609 0.823975L38.75 0.826904L38.7386 0.829834L38.7273 0.832275L38.7159 0.835205L38.705 0.838135L38.6942 0.841064L38.6828 0.844482L38.6719 0.847412L38.6609 0.849854L38.65 0.853271L38.6387 0.856689L38.6274 0.860107L38.6165 0.863281L38.6055 0.866699L38.5942 0.870117L38.5833 0.873779L38.5723 0.877197L38.5615 0.880615L38.551 0.884277L38.54 0.888184L38.5295 0.891846L38.5186 0.895752L38.5081 0.899414L38.4968 0.90332L38.4858 0.906982L38.4749 0.911377L38.4644 0.915039L38.4535 0.918945L38.443 0.922607L38.4325 0.926758L38.4216 0.930664L38.4107 0.934814L38.4002 0.939453L38.3897 0.943604L38.3792 0.948242L38.3683 0.952393L38.3574 0.957031L38.3469 0.961182L38.3359 0.96582L38.3254 0.970459L38.3145 0.975098L38.2935 0.984375L38.283 0.989258L38.2721 0.994385L38.2612 0.999023L38.2507 1.00415L38.2402 1.00879L38.2293 1.01367L38.2192 1.0188L38.2087 1.02417L38.1982 1.0293L38.1881 1.03418L38.1772 1.03931L38.1667 1.04443L38.1562 1.04932L38.1461 1.05518L38.136 1.0603L38.1255 1.06543L38.1155 1.07031L38.105 1.07593L38.0949 1.0813L38.0647 1.09888L38.0546 1.10449L38.0445 1.11084L38.0344 1.1167L38.0143 1.12744L38.0042 1.1333L37.9948 1.13843L33.9628 3.55493L33.951 3.56177L33.9393 3.56934L33.9275 3.57642L33.9158 3.58398L33.904 3.59106L33.8926 3.59839L33.8809 3.60547L33.8691 3.61328L33.8578 3.62085L33.8347 3.63574L33.8234 3.64331L33.8003 3.65918L33.7887 3.66675L33.7773 3.6748L33.766 3.68237L33.7547 3.69019L33.7438 3.69824L33.7324 3.7063L33.7106 3.7229L33.6996 3.73096L33.6887 3.73853L33.6779 3.74683L33.6669 3.75537L33.656 3.76367L33.6447 3.77222L33.6342 3.78052L33.6232 3.78857L33.6127 3.79688L33.6014 3.80566L33.5909 3.81445L33.58 3.823L33.5695 3.83081L33.5586 3.83984L33.5271 3.86621L33.517 3.87549L33.5065 3.88428L33.4964 3.89307L33.4754 3.91064L33.4653 3.91992L33.4452 3.9375L33.4049 3.97461L33.3948 3.98364L33.3847 3.99292L33.3646 4.01147L33.3545 4.02124L33.3448 4.03076L33.3352 4.04004L33.3255 4.0498L33.3159 4.05933L33.3062 4.06909L33.2966 4.07861L33.2869 4.08838L33.2776 4.0979L33.268 4.10815L33.2584 4.11768L33.2487 4.12769L33.239 4.13745L33.2298 4.14722L33.2205 4.15771L33.2117 4.16675L33.2025 4.177L33.1937 4.18701L33.1844 4.19702L33.1752 4.20728L33.1664 4.21729L33.1575 4.22729L33.1483 4.23779L33.1391 4.2478L33.1302 4.25806L33.1215 4.26807L33.1126 4.27856L33.1038 4.28857L33.095 4.29907L33.0862 4.30957L33.0778 4.32007L33.069 4.33057L33.0605 4.34106L33.0518 4.35156L33.0355 4.37305L33.027 4.38403L33.0187 4.39453L33.0107 4.40503L33.0023 4.41577L32.9943 4.42725L32.9863 4.43774L32.9788 4.44824L32.9703 4.45898L32.9628 4.46997L32.9548 4.48047L32.9468 4.49146L32.9393 4.50244L32.9313 4.51318L32.9153 4.53516L32.9078 4.54688L32.9006 4.55811L32.8931 4.56909L32.8856 4.58008L32.8784 4.59106L32.8708 4.60278L32.8637 4.61401L32.8561 4.62549L32.849 4.63721L32.8419 4.64844L32.8347 4.65991L32.828 4.67114L32.821 4.68262L32.8076 4.70508L32.8004 4.71655L32.7937 4.72827L32.7866 4.7395L32.7798 4.75098L32.7727 4.7627L32.7664 4.7749L32.753 4.79834L32.7463 4.80981L32.7399 4.82153L32.7332 4.83276L32.7269 4.84448L32.7206 4.85669L32.7144 4.86841L32.7081 4.88062L32.7021 4.89233L32.6959 4.90454L32.69 4.9165L32.6837 4.92847L32.6778 4.94043L32.6719 4.95288L32.6661 4.9646L32.6602 4.97681L32.6543 4.9895L32.6484 5.00122L32.6425 5.01343L32.6371 5.02515L32.6316 5.03784L32.6262 5.0498L32.6207 5.06201L32.6152 5.07422L32.6098 5.08643L32.6043 5.09912L32.5989 5.11133L32.593 5.12378L32.588 5.13599L32.5825 5.14893L32.5775 5.16113L32.5724 5.17383L32.5674 5.18604L32.5623 5.19824L32.5573 5.21045L32.5522 5.22339L32.5477 5.23633L32.543 5.24902L32.5384 5.26196L32.5338 5.27417L32.5287 5.28711L32.5241 5.29932L32.5195 5.31201L32.5149 5.32446L32.5103 5.33765L32.506 5.35059L32.5019 5.36353L32.4981 5.37622L32.4935 5.38916L32.4893 5.40234L32.4847 5.41479L32.4809 5.42749L32.4767 5.44043L32.4725 5.45312L32.4683 5.46606L32.4641 5.47876L32.4603 5.49219L32.4565 5.50513L32.4532 5.51807L32.4494 5.53125L32.4456 5.54419L32.4418 5.55664L32.438 5.57031L32.4344 5.58325L32.4307 5.59668L32.4273 5.61011L32.424 5.62305L32.4206 5.63647L32.4177 5.6499L32.4117 5.67651L32.4084 5.68994L32.4055 5.70337L32.4025 5.71631L32.3996 5.72974L32.3967 5.74292L32.3937 5.7561L32.3907 5.76953L32.3882 5.78296L32.3853 5.79639L32.3824 5.80933L32.3798 5.82251L32.3773 5.83594L32.3748 5.84961L32.3723 5.86353L32.3698 5.87695L32.3677 5.88989L32.3652 5.90332L32.363 5.9165L32.361 5.92944L32.3591 5.94336L32.357 5.95703L32.3553 5.97046L32.3532 5.98413L32.3499 6.0105L32.3482 6.02393L32.3469 6.03735L32.3452 6.05127L32.3436 6.06494L32.3419 6.07861L32.3406 6.09229L32.3394 6.1062L32.3381 6.11963L32.3372 6.1333L32.3354 6.14722L32.3342 6.16089L32.3329 6.1748L32.3317 6.18872L32.3308 6.20264L32.33 6.21631L32.3275 6.25806L32.3267 6.27173L32.3262 6.28564L32.3254 6.2998L32.325 6.31372L32.3241 6.32764L32.3237 6.34155L32.3229 6.3667V6.38184L32.3224 6.39453V6.40918L32.322 6.42212V11.5142L32.3233 11.5505L32.3237 11.5615V11.5657L32.3241 11.5779L32.3245 11.5896L32.325 11.6006V11.6047L32.3254 11.6169L32.3262 11.6292L32.3271 11.6533L32.3279 11.6655L32.3283 11.6777L32.3292 11.6877L32.33 11.7L32.3308 11.7122L32.3317 11.7244L32.3325 11.7361L32.3338 11.7483L32.335 11.7605L32.3363 11.7727L32.3379 11.7849L32.3404 11.8088L32.3417 11.8206L32.343 11.8328L32.3446 11.8445L32.3459 11.8555V11.8582L32.3471 11.8704L32.3488 11.8823L32.3507 11.8943L32.3524 11.906L32.3541 11.9177L32.3561 11.9299L32.3583 11.9417L32.3599 11.9539L32.3621 11.9656L32.3637 11.9773L32.3658 11.989L32.3683 12.0007L32.3708 12.0127L32.3734 12.0244L32.3759 12.0356L32.3784 12.0474L32.3805 12.0593L32.3826 12.0698V12.074L32.3851 12.0852L32.3881 12.0969L32.391 12.1089L32.3939 12.1201L32.3965 12.1318L32.3994 12.1436L32.4019 12.155L32.4044 12.1667L32.4074 12.1785L32.4099 12.1897L32.4128 12.2017L32.4162 12.2129L32.4191 12.2244L32.4225 12.2361L32.4254 12.2478L32.4288 12.259L32.4322 12.2705L32.4355 12.2817L32.4389 12.2935L32.4418 12.3049L32.4456 12.3167L32.449 12.3279L32.4523 12.3394L32.4561 12.3506L32.4595 12.3621L32.4628 12.3728L32.4666 12.3843L32.4704 12.3953L32.4742 12.406L32.4779 12.417L32.4821 12.4282L32.4859 12.4392L32.4943 12.4612L32.4985 12.4724L32.5027 12.4834L32.5111 12.5059L32.5153 12.5166L32.5195 12.5276L32.5237 12.5391L32.5279 12.5496L32.5321 12.5608L32.5367 12.5723L32.5413 12.583L32.546 12.5945L32.5502 12.605L32.5547 12.6157L32.5594 12.6262L32.5687 12.6482L32.5732 12.6592L32.5779 12.6699L32.5825 12.6809L32.5875 12.6919L32.5922 12.7026L32.5976 12.7136L32.6027 12.7246L32.6077 12.7351L32.6127 12.7461L32.6177 12.7566L32.6279 12.7776L32.6329 12.7878L32.6384 12.7983L32.6489 12.8193L32.6597 12.8394L32.6648 12.8499L32.6705 12.8601L32.6759 12.8701L32.6818 12.8806L32.6877 12.8906L32.6931 12.9006L32.699 12.9109L32.7045 12.9209L32.71 12.9314L32.7158 12.9419L32.7284 12.9619L32.7339 12.9717L32.7402 12.9817L32.746 12.9919L32.7523 13.002L32.7582 13.012L32.7641 13.022L32.77 13.0317L32.7763 13.0417L32.783 13.0522L32.7893 13.062L32.7956 13.0715L32.809 13.0911L32.8157 13.1006L32.8224 13.1104L32.8288 13.1204L32.8355 13.1299L32.8418 13.1396L32.8489 13.1497L32.8557 13.1589L32.8628 13.1685L32.8695 13.178L32.8762 13.1877L32.8829 13.197L32.8901 13.207L32.9044 13.2256L32.9115 13.2354L32.9186 13.2446L32.9258 13.2537L32.9333 13.2634L32.9405 13.2727L32.948 13.282L32.9551 13.291L32.9703 13.3096L32.9774 13.3184L32.9926 13.3369L33.0001 13.3462L33.0072 13.355L33.0223 13.3726L33.0303 13.3813L33.0379 13.3906L33.0455 13.3994L33.0534 13.4082L33.0614 13.417L33.0694 13.426L33.0773 13.4348L33.1013 13.4612L33.1097 13.4695L33.1177 13.4785L33.126 13.4868L33.1345 13.4951L33.1429 13.5039L33.1508 13.5125L33.1592 13.5208L33.1677 13.5293L33.176 13.5376L33.1844 13.5459L33.2008 13.5625L33.2092 13.5703L33.218 13.5789L33.2269 13.5867L33.2357 13.5947L33.2445 13.603L33.2529 13.6116L33.2613 13.6199L33.2701 13.6279L33.2789 13.636L33.2877 13.6438L33.297 13.6519L33.3058 13.6599L33.3146 13.6677L33.3239 13.6758L33.3326 13.6838L33.3419 13.6914L33.3507 13.6992L33.36 13.7073L33.3692 13.7153L33.3784 13.7229L33.3877 13.7307L33.3969 13.7388L33.4066 13.7463L33.4158 13.7539L33.4343 13.769L33.4439 13.7761L33.4536 13.7837L33.4633 13.7913L33.4725 13.7983L33.4818 13.8059L33.491 13.8135L33.5006 13.821L33.5103 13.8281L33.52 13.8357L33.5296 13.8425L33.5392 13.8491L33.5489 13.8562L33.5586 13.863L33.5682 13.8701L33.5779 13.877L33.588 13.884L33.5977 13.8911L33.6073 13.8982L33.6169 13.905L33.627 13.9119L33.6371 13.9189L33.6476 13.926L33.6577 13.9329L33.6682 13.939L33.6786 13.9458L33.6887 13.9524L33.6989 13.9587L33.7094 13.9656L33.7194 13.9717L33.7404 13.9839L33.7509 13.9902L33.761 13.9961L33.7706 14.002L38.1801 16.5745L38.1885 16.5791L38.1973 16.5845L38.2065 16.5896L38.2154 16.5945L38.2242 16.6001L38.233 16.6047L38.2422 16.6096L38.2511 16.6143L38.2599 16.6194L38.2687 16.624L38.2872 16.6333L38.296 16.6379L38.3052 16.6423L38.3145 16.647L38.3233 16.6516L38.3325 16.6558L38.3418 16.6604L38.3514 16.6648L38.3611 16.6694L38.3707 16.6736L38.38 16.6777L38.3984 16.686L38.4077 16.6902L38.4169 16.6946L38.4262 16.6987L38.4354 16.7029L38.4442 16.7068L38.4535 16.7109L38.4631 16.7151L38.4719 16.7192L38.4816 16.7231L38.4908 16.7268L38.5001 16.7307L38.5093 16.7344L38.5186 16.7383L38.5282 16.7419L38.5375 16.7458L38.5471 16.7495L38.5568 16.7529L38.566 16.7566L38.5845 16.7634L38.5938 16.7668L38.6034 16.77L38.6126 16.7734L38.6223 16.7769L38.632 16.7803L38.6416 16.7834L38.6512 16.7869L38.6617 16.7903L38.6785 16.7957L38.6807 16.7966L38.6979 16.802L38.7 16.8025L38.7167 16.8079L38.7189 16.8083L38.7357 16.8132L38.7377 16.8142L38.7549 16.8193L38.7571 16.8196L38.7743 16.8247L38.7764 16.8252L38.7936 16.8298L38.7957 16.8301L38.8129 16.8347L38.815 16.8352L38.8322 16.8394L38.8344 16.8403L38.8516 16.8445L38.8536 16.8447L38.8708 16.8491L38.873 16.8494L38.8902 16.8533L38.8923 16.8538L38.9099 16.8574L38.9124 16.8579L38.9296 16.8616L38.9322 16.8621L38.9498 16.8657L38.9519 16.8662L38.9695 16.8696L38.9716 16.8701L38.9893 16.8733L38.9918 16.8738L39.009 16.8772L39.0111 16.8777L39.0287 16.8806L39.0312 16.8809L39.0489 16.8838L39.0515 16.8843L39.0691 16.8872L39.0712 16.8877L39.0888 16.8901L39.0913 16.8906L39.1089 16.8931H39.1111L39.1287 16.8953H39.1312L39.1489 16.8972H39.1509L39.1686 16.8989L39.1708 16.8994L39.188 16.9011L39.1901 16.9016L39.2077 16.9033H39.2098L39.2275 16.9045H39.2296L39.2472 16.9058L39.2497 16.9062L39.2673 16.9075H39.2698L39.2875 16.9082H39.2896L39.3073 16.9092H39.3093L39.327 16.9099H39.3312L39.3488 16.9104H39.3513L39.369 16.9106H39.3732L39.3904 16.9111H39.3929L39.4105 16.9116H39.4525L39.4702 16.9111H39.4723L39.4899 16.9106H39.492L39.5096 16.9104H39.5117L39.5294 16.9094H39.5319L39.5495 16.9087L39.5516 16.9082L39.5693 16.9075L39.5714 16.907L39.589 16.9058H39.5911L39.6087 16.9048H39.6113L39.6289 16.9036L39.631 16.9033L39.6486 16.9019L39.6688 16.8999H39.6709L39.6885 16.8982H39.6906L39.7083 16.8965L39.7108 16.896L39.7284 16.894L39.7305 16.8936L39.7482 16.8914L39.7507 16.8911L39.7683 16.8884H39.7704L39.7876 16.886L39.7902 16.8855L39.8078 16.8831H39.8099L39.8275 16.8806L39.8296 16.8801L39.8472 16.8777L39.8494 16.8772L39.867 16.8743L39.8691 16.8738L39.8863 16.8708L39.8884 16.8704L39.906 16.8672L39.9081 16.8662L39.9254 16.8628L39.9274 16.8625L39.9446 16.8586L39.9472 16.8582L39.9645 16.8545L39.967 16.854L39.9842 16.8503L39.9863 16.8499L40.0035 16.8462L40.006 16.8457L40.0233 16.8418L40.0255 16.8416L40.0427 16.8372L40.0448 16.8369L40.062 16.8328L40.0646 16.8323L40.0818 16.8276L40.0839 16.8271L40.1011 16.8225L40.1031 16.8218L40.1204 16.8167L40.1225 16.8162L40.1397 16.8113L40.1418 16.8103L40.1603 16.8049L40.1691 16.8025H40.1733L40.1834 16.7991L40.1926 16.7966L40.2027 16.7937L40.2123 16.7908L40.222 16.7874L40.2313 16.7839L40.2409 16.7805L40.2505 16.7773L40.2598 16.7739L40.2888 16.7637L40.2985 16.7605L40.3081 16.7566L40.3173 16.7529L40.327 16.749L40.3362 16.7454L40.3455 16.7415L40.3551 16.7378L40.3644 16.7339L40.374 16.7297L40.3837 16.7261L40.3929 16.7222L40.4022 16.718L40.4118 16.7144L40.4211 16.71L40.4307 16.7058L40.4395 16.7017L40.4488 16.6975L40.4584 16.6936L40.4677 16.6895L40.4769 16.6853L40.4866 16.6812L40.4954 16.6768L40.5046 16.6726L40.5143 16.6685L40.5231 16.6638L40.5328 16.6597L40.5424 16.655L40.5512 16.6504L40.5605 16.6453L40.5697 16.6409L40.5785 16.6362L40.5878 16.6316L40.597 16.627L40.6058 16.6223L40.6146 16.6169L40.6238 16.6123L40.6331 16.6072L40.6423 16.6021L40.6503 16.5974L45.52 13.8853L45.5292 13.8799L45.5385 13.874L45.5477 13.8684L45.5574 13.863L45.5667 13.8577L45.5763 13.8521L45.5855 13.8462L45.5952 13.8413L45.604 13.8352L45.6129 13.8298L45.6216 13.824L45.6305 13.8186L45.6393 13.8127L45.6481 13.8071L45.6573 13.8013L45.6661 13.7954L45.675 13.79L45.6833 13.7842L45.6922 13.7778L45.7014 13.7715L45.7103 13.7651L45.7191 13.7588L45.7279 13.7529L45.7363 13.7471L45.7447 13.7412L45.7531 13.7349L45.7619 13.729L45.7703 13.7231L45.7787 13.7168L45.7871 13.7109L45.7955 13.7048L45.8039 13.698L45.8123 13.6921L45.8207 13.6858L45.8291 13.6792L45.8375 13.6729L45.8459 13.666L45.8539 13.6594L45.8622 13.6526L45.8702 13.646L45.8787 13.6392L45.8866 13.6326L45.8946 13.6262L45.9026 13.6194L45.9105 13.6133L45.9185 13.6069L45.9265 13.5999L45.9345 13.5935L45.9424 13.5864L45.9504 13.5791L45.9584 13.573L45.9664 13.5657L45.9744 13.5586L45.9824 13.552L45.9899 13.5447L45.9979 13.5376L46.013 13.5234L46.0206 13.5161L46.0286 13.509L46.0361 13.502L46.0436 13.4949L46.0588 13.4797L46.0663 13.4724L46.0739 13.4648L46.0814 13.4575L46.0886 13.45L46.0961 13.4419L46.1037 13.4343L46.1104 13.4268L46.118 13.4192L46.1394 13.3965L46.1465 13.3884L46.1537 13.3809L46.1608 13.3735L46.168 13.366L46.1747 13.3584L46.1818 13.3508L46.1881 13.3433L46.1948 13.3347L46.202 13.3269L46.2154 13.3108L46.2221 13.303L46.2292 13.2949L46.236 13.2869L46.2427 13.2786L46.2494 13.2705L46.2557 13.2625L46.2625 13.2542L46.2692 13.2461L46.2755 13.2383L46.2822 13.2297L46.288 13.2214L46.2944 13.2134L46.3002 13.2056L46.3065 13.197L46.3128 13.1887L46.3187 13.1802L46.3313 13.1636L46.3372 13.155L46.3434 13.1462L46.3498 13.1379L46.3561 13.1294L46.3615 13.1211L46.3674 13.1125L46.3733 13.1042L46.3792 13.0955L46.3846 13.0872L46.3901 13.0786L46.3956 13.0698L46.4014 13.0605L46.4069 13.0522L46.4128 13.043L46.4182 13.0342L46.4241 13.0254L46.4296 13.0166L46.435 13.0076L46.4405 12.9993L46.4459 12.9905L46.451 12.9817L46.456 12.9729L46.4611 12.9636L46.4665 12.9548L46.4716 12.9456L46.477 12.9368L46.4821 12.928L46.4871 12.9192L46.4921 12.9102L46.4972 12.9014L46.5022 12.8918L46.5073 12.8826L46.5118 12.8733L46.5169 12.8645L46.5215 12.8552L46.527 12.8464L46.5316 12.8376L46.5362 12.8284L46.5455 12.8098L46.55 12.8008L46.5593 12.7812L46.5639 12.7725L46.569 12.7629L46.5732 12.7532L46.5773 12.7439L46.582 12.7344L46.5862 12.7246L46.5904 12.7151L46.5946 12.7058L46.5988 12.6965L46.603 12.6868L46.6072 12.6772L46.6114 12.6675L46.6156 12.658L46.6193 12.6477L46.6231 12.6382L46.6269 12.6282L46.6307 12.6189L46.6345 12.6091L46.6382 12.5999L46.642 12.5908L46.6458 12.5811L46.6496 12.571L46.6538 12.5613L46.6576 12.5513L46.6609 12.5415L46.6643 12.5315L46.6677 12.5217L46.671 12.5122L46.6744 12.5024L46.6782 12.4924L46.6815 12.4824L46.6849 12.4722L46.6882 12.4622L46.6912 12.4526L46.6941 12.4429L46.697 12.4329L46.7 12.4231L46.7029 12.4131L46.7059 12.4033L46.7117 12.3833L46.7147 12.3728L46.7172 12.3628L46.7202 12.353L46.7227 12.343L46.7252 12.3325L46.7281 12.3228L46.7307 12.3127L46.7332 12.3022L46.7357 12.2922L46.7407 12.2715L46.7432 12.262L46.7453 12.2522L46.7474 12.2417L46.7499 12.2312L46.7521 12.2207L46.7546 12.2112L46.7567 12.2007L46.7592 12.1904L46.7613 12.1799L46.7629 12.1694L46.7646 12.1589L46.7663 12.1484L46.7684 12.1379L46.7701 12.1279L46.7718 12.1179L46.7739 12.1074L46.7756 12.0969L46.7776 12.0864L46.7794 12.0764L46.781 12.0659L46.7827 12.0544L46.7839 12.0444L46.7856 12.0334L46.7869 12.0229L46.7881 12.0125L46.7894 12.002L46.7906 11.991L46.7919 11.9805L46.7936 11.97L46.7944 11.9595L46.7961 11.949L46.797 11.9385L46.7982 11.928L46.7995 11.9172L46.8004 11.9067L46.8011 11.8962L46.8029 11.8752L46.8033 11.8643L46.8041 11.8533L46.8049 11.8425L46.8075 11.811L46.8079 11.8L46.8083 11.7896L46.8087 11.7791L46.8091 11.7681L46.8096 11.7576L46.81 11.748V11.7253L46.8104 11.7161V5.90454L46.81 5.89551V5.88477L46.8096 5.87598V5.8645L46.8091 5.85449L46.8087 5.84399L46.8083 5.83398L46.8079 5.82349L46.8075 5.81372L46.8066 5.80371L46.8062 5.7937L46.8058 5.7832L46.8054 5.77344L46.8046 5.76343L46.8041 5.75317L46.8029 5.74268L46.8016 5.73315L46.8004 5.72314L46.7995 5.71338L46.7986 5.70337L46.7978 5.69312L46.7966 5.68311L46.7957 5.67358L46.7944 5.66382L46.7932 5.65381L46.7919 5.6438L46.7911 5.63403L46.7899 5.62402L46.7886 5.61377L46.7869 5.60474L46.7856 5.59448L46.7844 5.58447L46.7827 5.57471L46.781 5.5647L46.7789 5.55469L46.7772 5.54492L46.7756 5.5354L46.7739 5.52515L46.7722 5.51514L46.7705 5.50513L46.7684 5.49414L46.7655 5.47729L46.7651 5.47485L46.7617 5.45776L46.7609 5.45508L46.7575 5.43799L46.7571 5.43579L46.7533 5.4187L46.7529 5.41602L46.7491 5.39893L46.7487 5.39673L46.7449 5.37964L46.7445 5.37695L46.7403 5.35986L46.7399 5.35767L46.7357 5.34058L46.7352 5.33789L46.7307 5.3208L46.7298 5.3186L46.7252 5.30176L46.7247 5.2998L46.7202 5.28296L46.7197 5.28052L46.7147 5.26367L46.7138 5.26147L46.7088 5.24487L46.7079 5.24268L46.7029 5.22583L46.7021 5.22388L46.697 5.20728L46.6962 5.20532L46.6912 5.18848L46.6903 5.18628L46.6849 5.16992L46.684 5.16797L46.6786 5.15161L46.6777 5.14941L46.6718 5.13306L46.671 5.13062L46.6576 5.09351L46.6512 5.07715L46.6505 5.0752L46.6441 5.05884L46.6433 5.05664L46.637 5.04028L46.6362 5.03809L46.6298 5.02173L46.629 5.01978L46.6223 5.00366L46.6215 5.00171L46.6147 4.9856L46.6139 4.98315L46.6072 4.96729L46.6063 4.96509L46.5992 4.94922L46.5983 4.94653L46.5912 4.93115L46.59 4.92896L46.5828 4.91333L46.582 4.91138L46.5744 4.89575L46.5732 4.8938L46.5656 4.87817L46.5643 4.87598L46.5568 4.8606L46.556 4.8584L46.548 4.84302L46.5467 4.84082L46.5388 4.8252L46.5375 4.82324L46.5295 4.80762L46.5286 4.80542L46.5207 4.79053L46.5194 4.78833L46.511 4.77319L46.5102 4.77148L46.5018 4.75635L46.5005 4.75439L46.4917 4.73926L46.4904 4.73706L46.4821 4.72192L46.4808 4.72021L46.472 4.70557L46.4707 4.70361L46.4619 4.68848L46.4606 4.68677L46.4514 4.67212L46.4501 4.66992L46.4409 4.65479L46.4396 4.65259L46.4304 4.63794L46.4291 4.63623L46.4199 4.62158L46.4186 4.61963L46.409 4.60474L46.4077 4.60278L46.3981 4.58813L46.3968 4.58594L46.3871 4.57153L46.3859 4.57007L46.3758 4.55566L46.3746 4.55347L46.3649 4.53931L46.3636 4.5376L46.3536 4.52344L46.3523 4.52173L46.3422 4.50732L46.3409 4.50537L46.3304 4.49097L46.3292 4.48901L46.3187 4.4751L46.3174 4.4729L46.3069 4.45898L46.3057 4.45752L46.2947 4.4436L46.2931 4.44189L46.2822 4.42798L46.2809 4.42627L46.27 4.41284L46.2687 4.41113L46.2578 4.39771L46.2562 4.396L46.2452 4.38257L46.2435 4.3811L46.2322 4.36768L46.2305 4.36548L46.2192 4.35205L46.2175 4.35034L46.2062 4.3374L46.2045 4.33521L46.1927 4.32227L46.1915 4.32056L46.1797 4.30762L46.178 4.30591L46.1663 4.29321L46.1646 4.2915L46.1528 4.27856L46.1512 4.27686L46.139 4.26416L46.1373 4.2627L46.1251 4.25L46.1234 4.24829L46.1113 4.2356L46.1096 4.23413L46.097 4.22144L46.0953 4.21973L46.0827 4.20752L46.0811 4.20581L46.0684 4.1936L46.0668 4.19214L46.0541 4.17993L46.0525 4.17822L46.0399 4.16602L46.0378 4.16431L46.0248 4.1521L46.0231 4.15039L46.0101 4.13867L46.008 4.13696L45.9949 4.12524L45.9933 4.12354L45.9802 4.1123L45.9786 4.1106L45.9651 4.09888L45.9634 4.09717L45.9487 4.08545L45.9408 4.0791L45.9332 4.07227L45.9257 4.06616L45.9177 4.05981L45.9097 4.05298L45.9022 4.04663L45.8942 4.04053L45.8866 4.03418L45.8787 4.02783L45.8707 4.02197L45.8547 4.00928L45.8467 4.00342L45.8383 3.99731L45.8303 3.99121L45.822 3.98511L45.8135 3.97925L45.8052 3.9729L45.7972 3.96729L45.7892 3.96191L45.7808 3.95605L45.7728 3.9502L45.7644 3.94482L45.7564 3.93921L45.748 3.93384L45.7392 3.92822L45.7308 3.92285L45.722 3.91699L45.7136 3.91162L45.7048 3.90649L45.6964 3.90137L45.688 3.896L45.6792 3.89062L45.6703 3.8855L45.662 3.88013L45.6536 3.875L45.6447 3.86963L45.6359 3.8645L45.6267 3.85938L45.6179 3.854L45.6091 3.84863L45.6002 3.84351L45.591 3.83838L45.583 3.83374L40.8128 1.10864L40.8023 1.10278L40.7922 1.09644L40.7822 1.09058L40.7511 1.07324L40.731 1.0625L40.7104 1.05103L40.6999 1.04565L40.689 1.04053L40.6785 1.03516L40.668 1.03003L40.6575 1.02515L40.6474 1.02002L40.6369 1.01489L40.626 1.01001L40.605 0.999756L40.5941 0.994873L40.5836 0.990234L40.5731 0.985107L40.5512 0.97583L40.5407 0.971436L40.5189 0.962158L40.508 0.95752L40.4975 0.953369L40.487 0.94873L40.4761 0.944336L40.4324 0.927734L40.4219 0.92334L40.4109 0.919189L40.4001 0.915039L40.3892 0.911377L40.3782 0.906982L40.3673 0.90332L40.3564 0.899414L40.3455 0.895752L40.3345 0.891846L40.3236 0.888184L40.3127 0.884277L40.29 0.876953L40.2673 0.870605L40.2565 0.866699L40.2451 0.863281L40.2338 0.860107L40.2224 0.856689L40.2111 0.853271L40.1998 0.849854L40.1884 0.846924L40.1771 0.84375L40.1661 0.84082L40.1548 0.837891L40.1435 0.835205L40.1321 0.831787L40.1208 0.828857L40.1099 0.826416L40.0759 0.817627L40.0649 0.815186L40.0536 0.8125L40.0309 0.807617L40.0196 0.804932L40.0083 0.802979L39.9974 0.800781L39.9747 0.795898L39.9633 0.793701L39.952 0.791992L39.9407 0.789795L39.9293 0.787842L39.918 0.7854L39.9067 0.783203L39.8953 0.781006L39.884 0.779053L39.8726 0.776855L39.8613 0.775146L39.85 0.773193L39.8273 0.768799L39.816 0.766846L39.7933 0.764404L39.7819 0.762695L39.7706 0.761475L39.7589 0.76001L39.7475 0.758789L39.7362 0.75708L39.7249 0.756348L39.7135 0.754639L39.7017 0.753418L39.6904 0.752441L39.6677 0.750977L39.6564 0.75L39.6451 0.748779L39.6337 0.747803L39.611 0.746338L39.5997 0.744873L39.5762 0.743408L39.5645 0.741943L39.553 0.741211L39.5417 0.740723L39.5304 0.740479L39.4963 0.739014L39.4849 0.73877L39.4622 0.737793H39.4509L39.4407 0.737549ZM43.7299 8.74805C43.7306 10.7305 43.355 11.3079 42.6046 12.1331C41.8541 12.958 40.8589 13.2905 39.619 13.2905C38.4856 13.2905 37.5719 12.8884 36.7799 12.189C35.9031 11.4146 35.2649 10.2139 35.2649 8.87402C35.2649 7.55688 35.757 6.41821 36.6292 5.57031C37.3943 4.82861 38.5331 4.34521 39.7076 4.34521C41.1252 4.34521 42.5974 5.01611 43.5048 6.34106L42.1724 7.46729C41.6077 6.41626 40.7892 6.06226 39.6185 6.02856C38.324 5.9917 36.8988 7.22656 37.0046 8.87354C37.0634 9.79492 37.4938 11.3784 39.5644 11.6689C40.6523 11.8213 41.889 10.6602 41.889 10.0295H39.8453V8.45483H43.7299V8.74805Z"></path>
  <path d="M55.647 6.00684C57.199 6.00684 58.4583 7.26636 58.4583 8.81787C58.4583 10.3694 57.199 11.6287 55.6474 11.6287C54.0958 11.6287 52.8365 10.3694 52.8365 8.81787C52.8365 7.26636 54.0958 6.00684 55.647 6.00684Z"></path>
  <path fill-rule="evenodd" clip-rule="evenodd" d="M55.5302 0.765381H55.5188L55.4969 0.755859H55.4616L55.4503 0.756348L55.4402 0.756592H55.428L55.4053 0.757568L55.3936 0.758057L55.3823 0.758301L55.3709 0.758789L55.3592 0.759277L55.3478 0.76001L55.3251 0.760986L55.3138 0.762207L55.3029 0.762939L55.2911 0.763428L55.2794 0.76416L55.2676 0.765137L55.2563 0.765869L55.2454 0.766846L55.2341 0.767578L55.2223 0.768799L55.2109 0.77002L55.1996 0.770996L55.1883 0.772217L55.1769 0.773193L55.1542 0.776123L55.1202 0.779785L55.1089 0.781982L55.0972 0.783936L55.0518 0.790771L55.0405 0.792725L55.0291 0.794434L55.0178 0.796631L55.0068 0.798584L54.996 0.800781L54.9846 0.80249L54.9733 0.804688L54.9619 0.806641L54.9506 0.808838L54.9393 0.811279L54.9279 0.813477L54.9166 0.81543L54.9053 0.818115L54.8943 0.820557L54.883 0.822998L54.8716 0.825684L54.8603 0.827637L54.8494 0.830566L54.8154 0.839355L54.8041 0.842285L54.7936 0.844971L54.7831 0.8479L54.7722 0.85083L54.7617 0.85376L54.7503 0.857178L54.7394 0.860352L54.7285 0.86377L54.7171 0.867188L54.7058 0.870605L54.6945 0.873779L54.6726 0.880615L54.6621 0.884033L54.6508 0.887207L54.6399 0.890625L54.6285 0.894531L54.6176 0.897705L54.6063 0.901611L54.5953 0.905273L54.5844 0.90918L54.5735 0.912842L54.563 0.916748L54.5521 0.92041L54.5412 0.924316L54.5298 0.928467L54.5193 0.932617L54.5084 0.936523L54.4975 0.940674L54.487 0.944824L54.4651 0.953125L54.4547 0.95752L54.4438 0.962158L54.4329 0.966553L54.4224 0.970947L54.4119 0.975586L54.4009 0.97998L54.3589 0.998535L54.3484 1.00366L54.3375 1.0083L54.327 1.01294L54.3165 1.01782L54.306 1.02295L54.296 1.02808L54.2859 1.03296L54.2754 1.03809L54.2649 1.04297L54.2544 1.04858L54.2443 1.05347L54.2343 1.05859L54.2238 1.06396L54.2128 1.06909L54.2028 1.07446L54.1923 1.07959L54.1821 1.08496L54.1716 1.09058L54.1616 1.09595L54.1418 1.10693L54.1318 1.11279L54.1213 1.11865L54.1112 1.12402L54.1011 1.12964L54.0911 1.1355L54.0809 1.14185L54.0713 1.14795L54.0621 1.15405L50.0305 3.57178L50.0192 3.57861L50.007 3.58569L49.9952 3.59326L49.9717 3.6084L49.96 3.61548L49.9482 3.62256L49.9364 3.63013L49.9247 3.63818L49.902 3.65234L49.8907 3.65991L49.868 3.67505L49.8453 3.69116L49.834 3.69849L49.8226 3.70605L49.8113 3.7146L49.7999 3.7229L49.7882 3.73096L49.7773 3.73926L49.7664 3.7478L49.7554 3.75562L49.7445 3.76416L49.7336 3.77246L49.7227 3.78101L49.7118 3.78882L49.7009 3.79761L49.6899 3.80615L49.6794 3.81494L49.6689 3.82324L49.658 3.83179L49.595 3.88452L49.574 3.90259L49.5635 3.91138L49.5425 3.92993L49.5224 3.94751L49.5023 3.96558L49.4922 3.97485L49.4821 3.98413L49.472 3.9939L49.4619 4.00342L49.4418 4.02197L49.4321 4.03125L49.4221 4.04077L49.4128 4.05054L49.4031 4.06006L49.3935 4.06982L49.3839 4.07935L49.3741 4.08911L49.3645 4.09888L49.3549 4.1084L49.3452 4.11816L49.3359 4.12769L49.3267 4.13745L49.3175 4.14697L49.3082 4.15723L49.299 4.16724L49.2897 4.17773L49.2805 4.18774L49.2713 4.19751L49.262 4.20752L49.2532 4.21753L49.2444 4.22778L49.2352 4.23828L49.2264 4.24878L49.218 4.25879L49.2092 4.26978L49.2003 4.27979L49.1915 4.29028L49.1747 4.31128L49.1659 4.32178L49.157 4.33276L49.1487 4.34326L49.1398 4.35376L49.131 4.3645L49.123 4.375L49.1147 4.3855L49.1058 4.396L49.0978 4.40698L49.0895 4.41797L49.0811 4.42847L49.0727 4.43896L49.0647 4.44971L49.0563 4.46069L49.0483 4.47168L49.0408 4.48267L49.0332 4.49341L49.0172 4.51538L49.0093 4.52637L49.0013 4.53711L48.9937 4.5481L48.9857 4.55933L48.9786 4.57031L48.9706 4.58179L48.9555 4.60425L48.9479 4.61572L48.9404 4.62744L48.9332 4.63867L48.9261 4.65015L48.919 4.66138L48.9119 4.67285L48.9047 4.68457L48.8972 4.6958L48.8904 4.70728L48.8837 4.71851L48.877 4.73022L48.8701 4.74219L48.8633 4.75342L48.8499 4.77686L48.8428 4.78906L48.8365 4.80054L48.8298 4.81177L48.8231 4.82324L48.8163 4.83521L48.8096 4.84717L48.8033 4.8584L48.797 4.87061L48.7907 4.88232L48.7844 4.89453L48.7783 4.90674L48.772 4.91846L48.7657 4.93066L48.7598 4.94238L48.7535 4.95459L48.7477 4.96631L48.7418 4.97852L48.73 5.00293L48.7241 5.01538L48.7183 5.0271L48.7124 5.03979L48.7068 5.05151L48.7009 5.06323L48.6951 5.07544L48.6896 5.08813L48.6841 5.10059L48.6791 5.11328L48.6736 5.12549L48.6682 5.13818L48.6627 5.15063L48.6577 5.16333L48.6526 5.17554L48.6476 5.1875L48.6422 5.20068L48.6371 5.21313L48.6321 5.22583L48.627 5.23853L48.6224 5.25098L48.6178 5.26392L48.6132 5.27661L48.6081 5.28931L48.6035 5.30176L48.5986 5.31494L48.594 5.32788L48.5898 5.34082L48.5851 5.354L48.5805 5.36646L48.5759 5.37939L48.5717 5.39209L48.5671 5.40503L48.5633 5.41772L48.5591 5.43066L48.5549 5.44385L48.5511 5.45679L48.5469 5.46973L48.5432 5.48291L48.5389 5.49585L48.5348 5.50879L48.531 5.52222L48.5272 5.5354L48.5234 5.54834L48.5197 5.56104L48.5163 5.57422L48.5125 5.58716L48.5092 5.59985L48.5054 5.61328L48.502 5.62646L48.4953 5.65332L48.4919 5.66602L48.489 5.67944L48.4857 5.69287L48.4827 5.7063L48.4793 5.71973L48.4764 5.73315L48.473 5.74658L48.4701 5.75977L48.4676 5.77319L48.4647 5.78613L48.4621 5.79956L48.4592 5.81299L48.4542 5.83984L48.4512 5.85327L48.4487 5.86646L48.4462 5.88013L48.444 5.89429L48.4415 5.9082L48.4395 5.92163L48.4373 5.93506L48.4348 5.94849L48.4332 5.96167L48.431 5.9751L48.4285 5.98853L48.4265 6.00195L48.4247 6.01538L48.4227 6.02881L48.421 6.04224L48.4189 6.05615L48.4172 6.06958L48.4155 6.08325L48.4142 6.09692L48.4122 6.10986L48.4109 6.12329L48.4096 6.13721L48.4084 6.15088L48.4071 6.16479L48.4058 6.17822L48.4046 6.19214L48.4033 6.20557L48.4025 6.21899L48.4012 6.23291L48.4004 6.24707L48.3993 6.26099L48.3984 6.27441L48.3976 6.28833L48.3968 6.30225L48.3964 6.31567L48.3955 6.32935L48.3951 6.34326L48.3947 6.35498L48.3943 6.36914L48.3939 6.38306L48.3934 6.39648L48.393 6.40918V6.43823L48.3926 6.45117V11.5371L48.3939 11.574L48.3943 11.5867L48.3947 11.5986L48.3959 11.6355L48.3964 11.6465V11.6506L48.3968 11.6628L48.398 11.675L48.3997 11.6995L48.4006 11.7112L48.4014 11.7234L48.4022 11.7341L48.4031 11.7458L48.4048 11.7703L48.406 11.7825L48.4069 11.7947L48.4119 11.8425L48.4136 11.8547L48.4161 11.8787L48.4182 11.8909L48.4199 11.9001L48.4216 11.9124L48.4232 11.9243L48.4249 11.9363L48.427 11.948L48.4287 11.9602L48.4304 11.9714L48.4321 11.9836L48.4341 11.9958L48.4363 12.0071L48.4384 12.0188L48.4404 12.0303L48.443 12.042L48.4451 12.0537L48.4471 12.0652L48.4497 12.0769L48.4522 12.0891L48.4543 12.1008L48.4564 12.1121L48.4594 12.1238L48.4623 12.1353L48.4652 12.147L48.4681 12.1582L48.4711 12.1702L48.4736 12.1814L48.4766 12.1931L48.4795 12.2046L48.4824 12.2163L48.4854 12.2273L48.4888 12.239L48.4917 12.2502L48.4951 12.262L48.498 12.2732L48.5013 12.2842L48.5047 12.2954L48.5081 12.3074L48.5114 12.3191L48.5148 12.3303L48.5177 12.342L48.5211 12.354L48.5248 12.3652L48.5286 12.3767L48.532 12.3879L48.5353 12.3989L48.5391 12.4097L48.5429 12.4216L48.5467 12.4324L48.5505 12.4438L48.5543 12.4551L48.5585 12.4661L48.5622 12.4773L48.566 12.4883L48.5702 12.4995L48.5744 12.511L48.5782 12.522L48.5824 12.5327L48.5865 12.5442L48.5908 12.5554L48.5954 12.5669L48.5992 12.5776L48.6034 12.5886L48.608 12.6001L48.6126 12.6106L48.6172 12.6218L48.6218 12.6323L48.6265 12.6428L48.6311 12.6538L48.6357 12.6646L48.6403 12.675L48.645 12.686L48.65 12.697L48.6546 12.708L48.6592 12.7188L48.6642 12.7292L48.6693 12.7397L48.6743 12.7507L48.6794 12.7607L48.6844 12.7717L48.6895 12.7827L48.6949 12.7935L48.705 12.8145L48.7104 12.825L48.7159 12.8352L48.7209 12.8452L48.726 12.8562L48.7369 12.8762L48.7424 12.8872L48.7478 12.8972L48.7537 12.9075L48.7592 12.9175L48.765 12.928L48.7709 12.938L48.7768 12.948L48.7827 12.9583L48.7881 12.9688L48.7944 12.9788L48.8003 12.9883L48.8062 12.9985L48.8125 13.0081L48.8184 13.0178L48.8246 13.0273L48.8308 13.0376L48.8367 13.0471L48.8425 13.0574L48.8492 13.0669L48.8556 13.0767L48.8619 13.0862L48.8686 13.0959L48.8749 13.106L48.8816 13.116L48.8879 13.1257L48.8942 13.1357L48.9005 13.1455L48.9072 13.1548L48.9135 13.1643L48.9202 13.1741L48.9265 13.1841L48.9337 13.1938L48.9408 13.2034L48.9479 13.2131L48.9547 13.2231L48.9614 13.2324L48.9685 13.2424L48.9752 13.2517L48.9822 13.261L48.989 13.2703L48.9965 13.2793L49.0036 13.2886L49.0112 13.2979L49.0183 13.3071L49.025 13.3164L49.0326 13.3257L49.0401 13.3347L49.0477 13.344L49.0552 13.3528L49.0624 13.3621L49.0699 13.3708L49.0775 13.3801L49.0847 13.3894L49.0922 13.3982L49.1002 13.4075L49.1082 13.4163L49.1161 13.4255L49.1237 13.4343L49.1396 13.4519L49.1476 13.4612L49.1556 13.47L49.1636 13.4785L49.1716 13.4873L49.1795 13.4961L49.1875 13.5049L49.1959 13.5132L49.2043 13.5222L49.2127 13.5312L49.2207 13.5398L49.2291 13.5481L49.2371 13.5566L49.2455 13.5649L49.2538 13.5732L49.2623 13.5818L49.2706 13.5896L49.2791 13.5981L49.2875 13.6064L49.2958 13.615L49.3043 13.6233L49.313 13.6313L49.3219 13.6396L49.3307 13.6482L49.3391 13.656L49.3479 13.6641L49.3568 13.6721L49.366 13.6799L49.3748 13.6875L49.3836 13.6951L49.3925 13.7026L49.4012 13.7107L49.4101 13.7188L49.4197 13.7266L49.4285 13.7346L49.4374 13.7422L49.4558 13.7573L49.4651 13.7649L49.4835 13.78L49.4928 13.7876L49.5024 13.7952L49.5117 13.8022L49.5209 13.8093L49.5302 13.8164L49.5394 13.824L49.5491 13.8311L49.5583 13.8384L49.5679 13.8459L49.5772 13.8525L49.5869 13.8594L49.6061 13.8735L49.6158 13.8806L49.6259 13.8879L49.6356 13.8945L49.6452 13.9014L49.6553 13.9084L49.6759 13.9219L49.686 13.929L49.6956 13.9353L49.7057 13.9421L49.7162 13.9482L49.7263 13.9551L49.7363 13.9617L49.7464 13.9685L49.7565 13.9751L49.767 13.9814L49.777 13.9878L49.7875 13.9941L49.7985 14.0005L49.8199 14.0125L49.8308 14.0193L49.8409 14.0247L54.2391 16.5955L54.2479 16.6001L54.2571 16.6052L54.2659 16.6101L54.2748 16.6157L54.2836 16.6211L54.2924 16.6257L54.3012 16.6306L54.31 16.6353L54.3193 16.6404L54.3285 16.645L54.3378 16.6497L54.3562 16.6589L54.3655 16.6636L54.3747 16.6682L54.3928 16.6772L54.4016 16.6824L54.4108 16.687L54.4205 16.6917L54.4293 16.6963L54.4385 16.7004L54.4473 16.7046L54.4565 16.7087L54.4658 16.7131L54.4755 16.7168L54.4847 16.7209L54.4944 16.7251L54.5036 16.7295L54.5128 16.7336L54.5221 16.7373L54.5313 16.7412L54.541 16.7449L54.5507 16.7488L54.5603 16.7524L54.5695 16.7563L54.5792 16.76L54.5889 16.7639L54.5985 16.7676L54.6082 16.771L54.6174 16.7747L54.6266 16.7781L54.6359 16.7815L54.6451 16.7849L54.6548 16.7886L54.6741 16.7954L54.6837 16.7986L54.6934 16.802L54.7026 16.8054L54.7123 16.8088L54.7228 16.812L54.7396 16.8176L54.7421 16.8184L54.7589 16.824L54.761 16.8247L54.7782 16.8298L54.7803 16.8306L54.7975 16.8357L54.7996 16.8364L54.8168 16.8416L54.819 16.8423L54.8362 16.8469L54.8383 16.8474L54.8555 16.8521L54.8576 16.8525L54.8748 16.8569L54.8769 16.8579L54.8941 16.8621L54.8962 16.8625L54.9135 16.8667L54.916 16.8672L54.9332 16.8708L54.9353 16.8713L54.9525 16.875L54.9546 16.8755L54.9722 16.8794L54.9747 16.8801L54.9919 16.8835L54.9944 16.884L55.0117 16.8877L55.0138 16.8882L55.0314 16.8916L55.0335 16.8918L55.0511 16.8953L55.0533 16.8958L55.0709 16.8987L55.073 16.8989L55.0902 16.9021L55.0923 16.9023L55.1096 16.905L55.1121 16.9053L55.1297 16.908L55.1322 16.9082L55.1498 16.9109L55.1519 16.9111L55.1696 16.9138H55.1717L55.1893 16.9158L55.1914 16.9163L55.209 16.9185H55.2112L55.2288 16.9204H55.2309L55.2485 16.9221H55.2506L55.2682 16.9238H55.2708L55.2884 16.9255H55.2905L55.3082 16.9268H55.3107L55.3283 16.928H55.3304L55.348 16.9292H55.3502L55.3678 16.9302L55.3699 16.9304L55.3875 16.9314H55.3896L55.4072 16.9321H55.4094L55.427 16.9326H55.4291L55.4467 16.9331H55.4489L55.4665 16.9336H55.5278L55.5454 16.9331H55.5475L55.5651 16.9326H55.5676L55.5853 16.9321L55.5874 16.9319L55.605 16.9309L55.6071 16.9304L55.6248 16.9297L55.6273 16.9292L55.6466 16.928L55.6642 16.9268H55.6663L55.684 16.9255L55.6861 16.925L55.7037 16.9238L55.7058 16.9233L55.7234 16.9221L55.726 16.9216L55.7637 16.918L55.7663 16.9175L55.7839 16.9155H55.786L55.8032 16.9133H55.8054L55.8229 16.9109L55.8251 16.9104L55.8427 16.908L55.8448 16.9075L55.8624 16.905L55.8646 16.9045L55.8821 16.9016L55.8847 16.9011L55.9023 16.8987L55.9044 16.8982L55.9216 16.8953L55.9238 16.8948L55.9414 16.8916L55.9435 16.8911L55.9611 16.8877L55.9632 16.8872L55.9804 16.884L55.9825 16.8835L55.9998 16.8801L56.0018 16.8796L56.019 16.876L56.0216 16.8755L56.0388 16.8718L56.0409 16.8713L56.0581 16.8674L56.0602 16.8667L56.0775 16.8625L56.0795 16.8621L56.0967 16.8579L56.0989 16.8574L56.1161 16.8528L56.1182 16.8525L56.1354 16.8479L56.1379 16.8474L56.1551 16.8428L56.1572 16.8423L56.1744 16.8376L56.1765 16.8369L56.1937 16.8318L56.1959 16.8311L56.2143 16.8254L56.2244 16.8225L56.2332 16.8201L56.2424 16.8167L56.2521 16.8137L56.2618 16.8108L56.271 16.8076L56.2806 16.8042L56.2903 16.8008L56.3 16.7974L56.3092 16.7939L56.3193 16.7908L56.3286 16.7874L56.3378 16.7839L56.347 16.7805L56.3567 16.7769L56.376 16.77L56.3853 16.7664L56.394 16.7625L56.4037 16.7588L56.413 16.7551L56.4226 16.7512L56.4318 16.7476L56.4415 16.7437L56.4507 16.7395L56.4604 16.7356L56.4692 16.7319L56.4789 16.7278L56.4881 16.7239L56.4973 16.7202L56.507 16.7161L56.5167 16.7117L56.5263 16.7075L56.5359 16.7029L56.5452 16.6987L56.5549 16.6946L56.5637 16.6904L56.5729 16.686L56.5822 16.6816L56.5918 16.677L56.6006 16.6724L56.6094 16.6682L56.6191 16.6638L56.6279 16.6592L56.6469 16.6497L56.6556 16.6445L56.6645 16.6396L56.6737 16.635L56.6826 16.6299L56.6918 16.6248L56.7001 16.6201L61.5699 13.908L61.5787 13.9026L61.5884 13.8975L61.598 13.8926L61.6077 13.8875L61.6169 13.8823L61.6266 13.8774L61.6358 13.8723L61.645 13.8669L61.6539 13.8611L61.6631 13.8555L61.6724 13.8496L61.6812 13.8445L61.69 13.8386L61.7076 13.8269L61.7164 13.821L61.7252 13.8152L61.7341 13.8088L61.7429 13.8027L61.7517 13.7964L61.7601 13.7908L61.7693 13.7847L61.7786 13.7783L61.787 13.7725L61.7958 13.7661L61.8046 13.7607L61.8134 13.7544L61.8223 13.7485L61.8306 13.7422L61.8395 13.7358L61.8478 13.7295L61.8563 13.7236L61.8643 13.7173L61.8726 13.7112L61.881 13.7043L61.8895 13.698L61.8978 13.6917L61.9062 13.6851L61.9142 13.6787L61.9226 13.6721L61.9306 13.6653L61.9385 13.6587L61.947 13.6519L61.955 13.6453L61.9629 13.6384L61.9709 13.6313L61.9789 13.6245L61.9869 13.6174L61.9948 13.6104L62.0028 13.6033L62.0108 13.5964L62.0184 13.5894L62.0259 13.5825L62.0334 13.5754L62.0419 13.5684L62.0494 13.5613L62.0578 13.554L62.0805 13.5327L62.0881 13.5251L62.0956 13.5183L62.1031 13.5112L62.1107 13.5037L62.1183 13.4966L62.141 13.4739L62.1485 13.4668L62.1628 13.4517L62.1703 13.4441L62.1775 13.4365L62.1985 13.4128L62.2056 13.405L62.2271 13.3823L62.2342 13.3743L62.2409 13.3662L62.2476 13.3589L62.2543 13.3513L62.261 13.3433L62.2678 13.3347L62.274 13.3269L62.2808 13.3193L62.2875 13.3113L62.2943 13.3032L62.301 13.2954L62.3077 13.2874L62.3144 13.2791L62.3203 13.271L62.327 13.2627L62.3333 13.2546L62.3396 13.2463L62.3459 13.2378L62.3522 13.2295L62.3585 13.2207L62.3652 13.2122L62.3715 13.2043L62.3778 13.1963L62.3841 13.1875L62.39 13.179L62.3959 13.1707L62.4017 13.1624L62.4076 13.1538L62.4135 13.145L62.4194 13.1367L62.4248 13.1282L62.4303 13.1194L62.4357 13.1111L62.4417 13.1023L62.4475 13.0938L62.4534 13.085L62.4592 13.0767L62.4647 13.0681L62.4706 13.0593L62.4765 13.0505L62.4815 13.0422L62.4874 13.0334L62.4929 13.0249L62.4979 13.0161L62.5034 13.0073L62.5084 12.998L62.5143 12.9888L62.5197 12.98L62.5248 12.9712L62.5298 12.9624L62.5349 12.9531L62.5403 12.9443L62.5449 12.9351L62.5504 12.9258L62.5554 12.917L62.5604 12.9075L62.5655 12.8982L62.5706 12.8894L62.5751 12.8801L62.5844 12.8625L62.5894 12.8533L62.5945 12.8435L62.5991 12.8342L62.6037 12.825L62.6083 12.8162L62.6129 12.8066L62.6176 12.7969L62.6222 12.7876L62.6264 12.7781L62.631 12.7688L62.6352 12.7595L62.6394 12.75L62.6436 12.7407L62.6478 12.731L62.652 12.7214L62.6562 12.7117L62.6604 12.7024L62.6646 12.6929L62.6684 12.6831L62.6725 12.6738L62.6763 12.6638L62.6801 12.6545L62.6843 12.645L62.6881 12.6348L62.6919 12.6248L62.6957 12.6155L62.6995 12.6055L62.7032 12.5957L62.707 12.5857L62.7108 12.5759L62.7142 12.5664L62.7179 12.5566L62.7217 12.5471L62.7255 12.5374L62.7292 12.5273L62.7326 12.5173L62.736 12.5071L62.7393 12.4971L62.7427 12.4878L62.7494 12.4678L62.7527 12.458L62.7562 12.448L62.7595 12.4382L62.762 12.4287L62.7654 12.4182L62.7687 12.4082L62.7717 12.3984L62.7746 12.3884L62.7772 12.3782L62.7859 12.3481L62.7889 12.3379L62.7918 12.3279L62.7947 12.3174L62.7973 12.3076L62.7998 12.2976L62.8023 12.2871L62.8049 12.2766L62.8069 12.2666L62.8094 12.2561L62.8116 12.2461L62.8157 12.2251L62.8179 12.2146L62.8204 12.2048L62.8225 12.1943L62.8246 12.1843L62.8271 12.1738L62.8292 12.1636L62.8309 12.1531L62.8326 12.1431L62.8342 12.1326L62.8364 12.1221L62.838 12.1121L62.8401 12.1011L62.8418 12.0903L62.8431 12.0798L62.8447 12.0693L62.846 12.0591L62.8477 12.0486L62.8489 12.0381L62.8506 12.0276L62.8519 12.0168L62.8531 12.0063L62.8544 11.9958L62.8557 11.9854L62.8574 11.9749L62.8586 11.9639L62.8594 11.9539L62.8603 11.9429L62.8611 11.9324L62.8636 11.9114L62.8644 11.9004L62.8653 11.8892L62.867 11.8682L62.8678 11.8572L62.8687 11.8459L62.8691 11.8357L62.8699 11.8247L62.8704 11.814L62.8712 11.803L62.8716 11.792L62.8729 11.7598L62.8733 11.7505V11.739L62.8737 11.7295V5.9209L62.8733 5.91187V5.90063L62.8729 5.89062L62.8724 5.88135V5.87036L62.872 5.85986L62.8716 5.85034L62.8712 5.84009L62.8708 5.82959L62.8699 5.81958L62.8695 5.80981L62.8691 5.79907L62.8687 5.78931L62.8678 5.7793L62.8674 5.76953L62.8666 5.75952L62.8653 5.74951L62.8644 5.73926L62.8636 5.72925L62.8619 5.70923L62.8611 5.69897L62.8603 5.68896L62.859 5.67896L62.8577 5.66919L62.8565 5.65967L62.8552 5.6499L62.8536 5.64038L62.8523 5.62988L62.8506 5.61963L62.8494 5.60962L62.8477 5.59961L62.8464 5.58984L62.8439 5.56982L62.8422 5.56006L62.8405 5.55005L62.8389 5.54028L62.8367 5.53027L62.8347 5.521L62.833 5.51221V5.51001L62.8296 5.49292L62.8292 5.49072L62.8259 5.47363L62.8254 5.47095L62.8221 5.45386L62.8217 5.45166L62.8179 5.43457L62.8174 5.43188L62.8137 5.41528L62.8132 5.41309L62.8094 5.396L62.809 5.39331L62.8049 5.37646L62.804 5.37402L62.7998 5.35718L62.7994 5.35474L62.7947 5.3374L62.7944 5.33545L62.7897 5.3186L62.7889 5.31641L62.7842 5.2998L62.7839 5.29761L62.7792 5.28076L62.7784 5.27881L62.7737 5.26196L62.7734 5.25977L62.7679 5.24292L62.7675 5.24097L62.7625 5.22461L62.762 5.22241L62.7565 5.20557L62.7557 5.20361L62.7502 5.18726L62.7494 5.18506L62.744 5.1687L62.7435 5.1665L62.7377 5.15015L62.7368 5.14819L62.731 5.13184L62.7301 5.12964L62.7242 5.11328L62.7234 5.11108L62.7175 5.09473L62.7167 5.09229L62.7104 5.07593L62.7095 5.07373L62.7032 5.05737L62.7024 5.05542L62.6961 5.03906L62.6953 5.03687L62.6885 5.021L62.6877 5.0188L62.681 5.00293L62.6801 5.00073L62.6734 4.98486L62.6725 4.98267L62.6654 4.9668L62.6642 4.9646L62.657 4.94873L62.6562 4.94653L62.649 4.93115L62.6478 4.92896L62.6403 4.91333L62.6394 4.91138L62.6318 4.89575L62.631 4.89355L62.623 4.87817L62.6222 4.87598L62.6142 4.8606L62.6129 4.8584L62.605 4.84277L62.6041 4.84082L62.5961 4.8252L62.5949 4.82324L62.5869 4.80811L62.5856 4.80591L62.5773 4.79077L62.5764 4.78857L62.568 4.77368L62.5672 4.77148L62.5588 4.75586L62.5579 4.75391L62.5491 4.73926L62.5479 4.73706L62.5391 4.72192L62.5378 4.71973L62.529 4.70483L62.5277 4.70312L62.5185 4.68799L62.5172 4.68579L62.508 4.67114L62.5067 4.66895L62.4975 4.6543L62.4962 4.65259L62.487 4.63794L62.4857 4.63574L62.4765 4.62158L62.4752 4.61938L62.4656 4.60474L62.4643 4.60303L62.4547 4.58887L62.4534 4.58667L62.4433 4.57251L62.442 4.5708L62.4324 4.5564L62.4312 4.55444L62.421 4.54004L62.4198 4.53833L62.4097 4.52466L62.4084 4.52295L62.3984 4.50903L62.3971 4.50684L62.3866 4.49316L62.3854 4.49146L62.3749 4.47754L62.3736 4.47534L62.3627 4.46167L62.3614 4.45996L62.3505 4.44604L62.3492 4.44434L62.3383 4.43091L62.3367 4.42871L62.3253 4.41528L62.324 4.41382L62.3127 4.40039L62.311 4.39868L62.2997 4.3855L62.298 4.38379L62.2867 4.37085L62.2854 4.36914L62.274 4.35571L62.2728 4.354L62.261 4.34106L62.2594 4.33936L62.2476 4.32642L62.2459 4.32471L62.2342 4.31177L62.2325 4.31006L62.2208 4.29736L62.2191 4.29565L62.2073 4.2832L62.2056 4.28149L62.1935 4.2688L62.1918 4.26709L62.1796 4.25464L62.1779 4.25293L62.1653 4.24023L62.1636 4.23853L62.1511 4.22632L62.1494 4.22485L62.1368 4.21265L62.1351 4.21094L62.1225 4.19873L62.1208 4.19702L62.1078 4.18481L62.1061 4.18311L62.0931 4.17139L62.0914 4.16968L62.0784 4.15796L62.0767 4.15625L62.0637 4.14453L62.062 4.14331L62.0486 4.13159L62.0469 4.12988L62.0339 4.11841L62.0179 4.10425L62.0104 4.09741L62.0028 4.09082L61.9952 4.08398L61.9877 4.07788L61.9802 4.07153L61.9722 4.0647L61.9646 4.05835L61.957 4.05249L61.949 4.04663L61.9411 4.04053L61.9331 4.03442L61.9255 4.02832L61.9175 4.02246L61.9096 4.01611L61.9016 4.0105L61.8936 4.00464L61.8857 3.99878L61.8777 3.99341L61.8697 3.98755L61.8613 3.9812L61.8453 3.96948L61.8373 3.96387L61.8294 3.95801L61.821 3.95264L61.813 3.94678L61.8046 3.94092L61.7962 3.93579L61.7874 3.92993L61.7794 3.92456L61.771 3.9187L61.7626 3.91357L61.7542 3.90845L61.7458 3.90308L61.737 3.89771L61.7286 3.89185L61.7198 3.88672L61.7114 3.88159L61.7026 3.87671L61.6942 3.87158L61.6854 3.86646L61.6765 3.86157L61.6682 3.85596L61.6602 3.85156L56.8866 1.12207L56.8761 1.11572L56.8656 1.10986L56.8555 1.10449L56.8455 1.09839L56.8354 1.09253L56.8249 1.08716L56.8144 1.0813L56.8043 1.07593L56.7943 1.07007L56.7838 1.06494L56.7728 1.05957L56.7518 1.04932L56.7413 1.04443L56.7313 1.03931L56.7203 1.03394L56.7094 1.02881L56.6989 1.02368L56.6884 1.0188L56.6783 1.01367L56.6683 1.00903L56.6578 1.00439L56.6473 0.999512L56.6371 0.994873L56.6266 0.990234L56.6158 0.985596L56.6053 0.980957L56.5948 0.976807L56.5843 0.972168L56.5734 0.968018L56.5624 0.963623L56.5515 0.959473L56.541 0.955322L56.5301 0.951172L56.5196 0.947021L56.5087 0.942627L56.4982 0.938477L56.4872 0.934326L56.4767 0.930664L56.4662 0.92627L56.4553 0.922607L56.4445 0.918701L56.434 0.915039L56.4235 0.911133L56.4125 0.907471L56.402 0.904053L56.3911 0.900391L56.3798 0.896484L56.3688 0.892822L56.3575 0.888916L56.347 0.885498L56.3361 0.881836L56.3143 0.875L56.3033 0.871826L56.2815 0.865967L56.2701 0.862549L56.2589 0.859619L56.2479 0.856689L56.2366 0.85376L56.2256 0.851074L56.2143 0.848145L56.2034 0.845215L56.1925 0.842285L56.1812 0.839844L56.1593 0.833984L56.1479 0.831787L56.1371 0.829346L56.1257 0.827148L56.103 0.822266L56.0917 0.81958L56.069 0.814697L56.0577 0.8125L56.0464 0.810547L56.035 0.80835L55.9897 0.801514L55.9783 0.799561L55.967 0.797852L55.9561 0.795654L55.9448 0.794434L55.9334 0.792725L55.9225 0.791504L55.9111 0.790283L55.9002 0.789062L55.8889 0.787842L55.878 0.786621L55.8662 0.785156L55.8549 0.783936L55.8436 0.782227L55.8209 0.779785L55.8095 0.779053L55.7986 0.778076L55.7873 0.776855L55.7764 0.776123L55.765 0.775146L55.7537 0.774414L55.7424 0.773438L55.731 0.772705L55.7197 0.771729L55.7083 0.771484L55.697 0.770508L55.6852 0.77002L55.6739 0.769775L55.652 0.768799L55.6407 0.768555L55.6067 0.76709L55.5958 0.766602L55.5513 0.765625H55.5403L55.5302 0.765381ZM55.6476 4.34521C58.116 4.34521 60.1205 6.34937 60.1205 8.81787C60.1205 11.2864 58.116 13.2905 55.6476 13.2905C53.1792 13.2905 51.1747 11.2864 51.1747 8.81787C51.1747 6.34937 53.1792 4.34521 55.6476 4.34521Z"></path>
</svg>