<svg class="jota" viewBox="0 0 24 24" width="24" height="24">
  <path d="M8.81448 17.7131C7.95751 17.7131 7.30155 17.4698 6.84661 16.9831C6.39168 16.4965 6.16421 15.8088 6.16421 14.92V9.07991C6.16421 8.19119 6.39168 7.5035 6.84661 7.01682C7.30155 6.53014 7.95751 6.2868 8.81448 6.2868C9.67146 6.2868 10.3274 6.53014 10.7824 7.01682C11.2373 7.5035 11.4648 8.19119 11.4648 9.07991V14.92C11.4648 15.8088 11.2373 16.4965 10.7824 16.9831C10.3274 17.4698 9.67146 17.7131 8.81448 17.7131ZM8.81448 16.1262C9.41754 16.1262 9.71906 15.7611 9.71906 15.0311V8.96882C9.71906 8.2388 9.41754 7.8738 8.81448 7.8738C8.21143 7.8738 7.9099 8.2388 7.9099 8.96882V15.0311C7.9099 15.7611 8.21143 16.1262 8.81448 16.1262ZM2.07399 17.6179C1.75659 17.6179 1.26463 17.6179 1.26463 17.6179V16.0309C1.26463 16.0309 1.62435 16.0309 1.83594 16.0309C2.18508 16.0309 2.44429 15.9463 2.61357 15.777C2.78285 15.5972 2.86749 15.3274 2.86749 14.9677V10.6349L4.61318 8.88921V14.92C4.61318 15.8299 4.40158 16.507 3.97838 16.9514C3.56577 17.3957 2.93097 17.6179 2.07399 17.6179ZM4.61318 7.27607V6.4455H2.86749V9.02177L4.61318 7.27607ZM13.7322 8.0325H11.9072V6.4455H17.3029V8.0325H15.4779V17.5544H13.7322V8.0325ZM18.5616 6.4455H20.9262L22.7354 17.5544H20.9897L20.6723 15.3485V15.3803H18.6885L18.3711 17.5544H16.7524L18.5616 6.4455ZM20.466 13.8726L19.6884 8.38163H19.6566L18.8949 13.8726H20.466Z"></path>
  </svg>