<svg class="oepa" viewBox="0 0 24 21">
  <path d="M8.45073 0C10.0099 0 11.1432 0.2749 11.8507 0.824701C12.5975 1.40068 12.9709 2.35629 12.9709 3.69152C12.9709 4.51622 12.8333 5.26238 12.5582 5.92999C12.283 6.58451 11.8965 7.12777 11.3987 7.55976C10.4029 8.39755 8.96171 8.81644 7.07503 8.81644C5.46349 8.81644 4.31053 8.50882 3.61612 7.89356C2.86931 7.25213 2.49591 6.28998 2.49591 5.00711C2.49591 4.15623 2.66623 3.38389 3.00688 2.6901C3.36064 1.9963 3.86506 1.42032 4.52016 0.962152C5.4766 0.320718 6.78679 0 8.45073 0ZM7.11434 7.48121C7.44188 7.48121 7.72357 7.29795 7.95941 6.93141C8.20835 6.56488 8.40487 6.1198 8.549 5.59618C8.69312 5.05947 8.79793 4.50967 8.86344 3.94678C8.94205 3.3708 8.98136 2.87336 8.98136 2.45447C8.98136 2.08793 8.94205 1.81303 8.86344 1.62977C8.79793 1.43341 8.64726 1.33523 8.41143 1.33523C8.05767 1.33523 7.74978 1.52504 7.48774 1.90467C7.23881 2.28429 7.03572 2.73591 6.8785 3.25953C6.72128 3.78315 6.60336 4.31986 6.52475 4.86966C6.45924 5.41946 6.42648 5.86454 6.42648 6.20489C6.42648 7.05577 6.65577 7.48121 7.11434 7.48121Z M17.8486 4.71258C17.7962 5.00057 17.7569 5.27547 17.7307 5.53728C17.7176 5.79909 17.7111 6.03471 17.7111 6.24416C17.7111 6.36198 17.7176 6.49288 17.7307 6.63688C17.7438 6.78087 17.77 6.91832 17.8093 7.04923C17.8617 7.16704 17.9273 7.27177 18.0059 7.3634C18.0976 7.44194 18.2221 7.48121 18.3793 7.48121C18.4972 7.48121 18.6282 7.44194 18.7723 7.3634C18.9296 7.28486 19.0802 7.17359 19.2243 7.02959C19.3816 6.8856 19.5257 6.70887 19.6567 6.49943C19.8008 6.28998 19.9122 6.05435 19.9908 5.79254H23.2139L22.7029 7.89356C22.4409 8.06374 22.1395 8.20774 21.7989 8.32555C21.4582 8.44336 21.0979 8.54154 20.718 8.62009C20.338 8.68554 19.9515 8.73135 19.5584 8.75754C19.1654 8.79681 18.792 8.81644 18.4382 8.81644C17.7831 8.81644 17.1739 8.75754 16.6105 8.63972C16.0471 8.52191 15.5558 8.319 15.1365 8.03101C14.7173 7.74302 14.3832 7.3634 14.1343 6.89214C13.8984 6.40779 13.7805 5.81218 13.7805 5.10529C13.7805 4.46386 13.8788 3.83551 14.0753 3.22026C14.2849 2.60501 14.6256 2.06175 15.0972 1.59049C15.582 1.10615 16.224 0.719977 17.0232 0.431986C17.8355 0.143996 18.8444 0 20.0498 0C21.36 0 22.3426 0.202903 22.9977 0.608708C23.6659 1.01451 24 1.6494 24 2.51337C24 2.86682 23.9476 3.25299 23.8428 3.67188C23.738 4.07769 23.5807 4.42459 23.3711 4.71258H17.8486ZM20.4625 2.37592C20.4625 1.97012 20.397 1.69522 20.266 1.55122C20.1349 1.40723 19.9777 1.33523 19.7943 1.33523C19.5846 1.33523 19.3881 1.40723 19.2047 1.55122C19.0344 1.68213 18.8771 1.86539 18.733 2.10102C18.5889 2.32356 18.4579 2.58537 18.34 2.88645C18.2221 3.17444 18.1238 3.48207 18.0452 3.80933H20.2856C20.3118 3.65225 20.338 3.48861 20.3642 3.31844C20.3904 3.17444 20.4101 3.01736 20.4232 2.84718C20.4494 2.67701 20.4625 2.51992 20.4625 2.37592Z M4.00918 20.9906H0L2.47626 9.24843H5.67968L6.03343 10.5051H6.15135C6.62302 10.0077 7.14709 9.65423 7.72358 9.44479C8.31316 9.22225 8.88965 9.11098 9.45303 9.11098C9.9116 9.11098 10.2916 9.18298 10.5929 9.32697C10.9073 9.45788 11.1563 9.64114 11.3397 9.87677C11.5231 10.1124 11.6542 10.3938 11.7328 10.7211C11.8114 11.0484 11.8507 11.3953 11.8507 11.7618C11.8507 11.9451 11.8376 12.22 11.8114 12.5865C11.7852 12.953 11.7262 13.3654 11.6345 13.8236C11.5428 14.2686 11.4118 14.7333 11.2414 15.2177C11.0711 15.6889 10.8418 16.1209 10.5536 16.5136C10.2785 16.9064 9.9247 17.2271 9.49234 17.4758C9.07308 17.7245 8.56865 17.8489 7.97907 17.8489C7.65152 17.8489 7.33052 17.8096 7.01608 17.7311C6.71473 17.6525 6.43959 17.5478 6.19066 17.4169C5.94172 17.286 5.71898 17.1354 5.52245 16.9653C5.33903 16.782 5.20146 16.5987 5.10975 16.4155H4.99183L4.00918 20.9906ZM6.09239 15.9442C6.40684 15.9442 6.66888 15.7806 6.87851 15.4533C7.08814 15.113 7.25846 14.7203 7.38948 14.2752C7.5205 13.817 7.61221 13.3654 7.66462 12.9203C7.73013 12.4621 7.76288 12.1218 7.76288 11.8993C7.76288 11.6374 7.71703 11.4214 7.62531 11.2513C7.5467 11.0811 7.39603 10.996 7.1733 10.996C6.92436 10.996 6.68853 11.0876 6.4658 11.2709C6.24306 11.4411 6.07929 11.5916 5.97447 11.7225L5.20801 15.3159C5.31282 15.4599 5.4373 15.6039 5.58142 15.7479C5.72554 15.8788 5.89586 15.9442 6.09239 15.9442Z M13.931 10.3873C14.5992 10.06 15.2805 9.82441 15.9749 9.68041C16.6824 9.52333 17.4686 9.44479 18.3333 9.44479C19.1718 9.44479 19.8662 9.51024 20.4165 9.64114C20.9668 9.77205 21.4057 9.96186 21.7332 10.2106C22.0608 10.4593 22.2901 10.7538 22.4211 11.0942C22.5521 11.4345 22.6176 11.8207 22.6176 12.2527C22.6176 12.5014 22.598 12.7698 22.5587 13.0578C22.5325 13.3458 22.4997 13.5879 22.4604 13.7843L21.5367 18.1041H18.3726L18.0188 16.8475H17.9009C17.4817 17.3056 16.9903 17.6591 16.427 17.9078C15.8767 18.1434 15.3264 18.2612 14.7761 18.2612C14.4617 18.2612 14.1538 18.2154 13.8524 18.1238C13.5511 18.0321 13.2825 17.8947 13.0467 17.7114C12.8108 17.5151 12.6208 17.2729 12.4767 16.9849C12.3326 16.6838 12.2605 16.3238 12.2605 15.9049C12.2605 15.2242 12.444 14.6875 12.8108 14.2948C13.1908 13.889 13.6821 13.5879 14.2848 13.3916C14.9006 13.1821 15.5884 13.0512 16.3483 12.9989C17.1214 12.9465 17.8944 12.9203 18.6674 12.9203C18.6936 12.7894 18.7263 12.6061 18.7657 12.3705C18.805 12.1218 18.8246 11.9058 18.8246 11.7225C18.8246 11.4869 18.7591 11.2709 18.6281 11.0746C18.5102 10.8651 18.2547 10.7604 17.8616 10.7604C17.403 10.7604 17.0624 10.8978 16.8397 11.1727C16.63 11.4345 16.4925 11.7553 16.427 12.1349H13.5576L13.931 10.3873ZM18.4512 13.8432H18.0974C17.7175 13.8432 17.3899 13.8956 17.1148 14.0003C16.8528 14.0919 16.6366 14.2163 16.4663 14.3734C16.309 14.5304 16.1911 14.7072 16.1125 14.9035C16.0339 15.0999 15.9946 15.2962 15.9946 15.4926C15.9946 15.8068 16.0732 16.0424 16.2304 16.1995C16.4007 16.3566 16.5973 16.4351 16.82 16.4351C17.0952 16.4351 17.3637 16.3369 17.6258 16.1406C17.9009 15.9442 18.0712 15.6824 18.1368 15.3551L18.4512 13.8432Z"></path>
  </svg>