<svg class="signature" viewBox="0 0 163.25 51.05" width="163.25" height="51.05">
  <path fill-rule="evenodd" clip-rule="evenodd" d="M163.827 0.766342H0.579071V51.8144H163.827V0.766342ZM96.1819 34.3236C95.9532 34.743 95.8769 35.391 95.9913 35.696C96.2581 36.4202 96.9443 36.4965 97.5923 35.8484C98.126 35.3147 98.2022 31.6552 97.6685 29.8636C97.173 28.1482 97.5923 27.6908 99.9557 27.3858C100.985 27.2334 102.548 26.8903 103.425 26.5853C105.293 25.8992 105.483 26.0135 105.826 27.6145C106.207 29.4824 107.427 30.5879 109.181 30.5879C110.324 30.5879 111.354 30.1304 113.869 28.4913C115.585 27.3477 117.148 26.3947 117.262 26.3947C117.72 26.3947 117.453 27.5383 116.69 28.8344C115.661 30.5879 115.814 32.6464 116.995 32.7988C117.872 32.9132 120.579 31.6934 121.76 30.626C123.133 29.2918 124.352 28.8725 125.115 29.3681C125.534 29.6349 126.106 29.8255 126.373 29.8255C127.059 29.8255 129.956 28.4151 130.261 27.9195C130.757 27.119 131.9 27.5383 132.319 28.6819C132.777 30.0161 133.844 30.2067 134.569 29.0631C135.255 27.9195 135.788 28.1101 136.398 29.7493C136.741 30.5498 137.58 31.579 138.304 32.1127C139.448 32.8751 140.096 32.9894 142.307 32.9513C144.937 32.9132 146.119 32.6464 149.473 31.3884C151.265 30.7404 151.989 29.8255 150.731 29.8255C150.35 29.8255 149.092 30.1304 147.949 30.5498C145.128 31.5028 141.583 31.8458 140.058 31.3122C139.334 31.0835 138.571 30.4354 138.228 29.7874C137.732 28.7963 137.732 28.5675 138.228 27.5764C139.105 25.9373 141.773 23.955 143.755 23.5357C144.899 23.2689 145.547 22.9258 145.623 22.4684C145.738 21.9347 145.471 21.8203 144.289 21.8203C142.459 21.8203 139.334 23.5738 137.732 25.518C136.398 27.119 135.674 26.9284 136.665 25.213C137.504 23.7263 137.504 22.9639 136.627 22.9639C135.865 22.9639 134.645 24.8318 134.302 26.4709C134.187 27.0809 133.921 27.6145 133.692 27.6527C133.12 27.767 133.006 25.7086 133.539 24.4125C133.844 23.6882 133.844 23.1545 133.616 22.9258C133.196 22.5065 131.976 22.8496 131.976 23.3832C131.976 24.3744 130.032 26.4709 128.355 27.3477C126.068 28.4913 125.877 28.4913 125.877 27.6527C125.877 27.2715 126.678 26.3947 127.593 25.6704C128.546 24.9843 129.651 23.8026 130.109 23.0783C130.871 21.8203 130.871 21.7441 130.261 21.0579C129.88 20.6386 129.232 20.2955 128.812 20.2955C127.555 20.2955 124.734 21.8966 123.514 23.307C122.485 24.4887 122.37 24.7937 122.599 26.3566L122.828 28.1101L120.35 29.7111C119.016 30.626 117.796 31.1978 117.72 31.0072C117.605 30.8166 117.948 29.7111 118.482 28.5294C120.236 24.6793 119.016 23.4214 115.699 25.6323C114.784 26.2803 113.946 26.7759 113.869 26.7759C113.793 26.7759 112.878 27.3096 111.887 27.9195C109.028 29.7493 107.58 29.3299 107.58 26.6997C107.58 25.4417 107.694 25.2511 108.456 25.2511C109.371 25.2511 111.544 24.5268 112.688 23.8788C114.136 23.002 111.62 20.7149 109.714 21.2104C109.181 21.3248 107.999 22.2015 107.046 23.1545C105.864 24.2981 104.873 24.908 103.882 25.0605C103.082 25.213 101.938 25.4798 101.29 25.6323C100.68 25.8229 99.4602 26.0135 98.6216 26.0898C97.3636 26.2041 97.0586 26.0516 96.6393 25.2511C95.9913 23.955 96.0294 20.1049 96.7155 17.7415C97.7829 14.1201 99.4602 13.0146 101.481 14.5776C102.662 15.4924 103.005 15.5306 103.005 14.6538C103.005 13.8533 100.489 12.2904 99.2696 12.2904C97.9354 12.2904 96.22 14.082 95.3433 16.4073C94.619 18.3514 94.5808 19.0376 94.7715 22.6971L95.0002 26.7759H92.1412C89.854 26.7759 89.206 26.8903 89.0154 27.3858C88.6342 28.3769 89.7015 28.72 92.6367 28.5294C94.962 28.3769 95.4195 28.4532 95.7245 29.025C96.3725 30.1686 96.6393 33.485 96.1819 34.3236ZM127.898 22.049C129.537 21.6679 129.194 22.6208 126.983 24.6412C124.81 26.6234 124.352 26.7759 124.352 25.518C124.352 24.4506 126.449 22.3921 127.898 22.049ZM110.629 22.5827C110.82 22.8877 110.858 23.2689 110.782 23.4214C110.515 23.8407 109.6 23.8026 109.333 23.3832C109.219 23.1926 109.371 22.8114 109.714 22.5446C110.21 22.1634 110.362 22.1634 110.629 22.5827ZM20.8952 32.6082C21.2764 33.485 21.7339 34.438 21.9245 34.7048C22.8775 35.9628 23.373 34.7048 23.4874 30.8547C23.6017 27.8051 23.6399 27.7289 27.1469 27.3858C28.5192 27.2334 31.1494 26.7759 33.0173 26.3566C35.3427 25.861 36.5244 25.7086 36.7912 25.9754C37.0199 26.2041 37.1343 26.4328 37.0199 26.4709C36.9437 26.5472 36.0669 27.0046 35.0758 27.5002C33.1698 28.4532 32.598 29.2537 33.2842 30.0542C33.8941 30.7785 35.2283 30.7404 36.6768 29.9398C37.7442 29.3299 37.9348 29.3299 38.1254 29.8255C38.4685 30.8166 40.4126 32.4939 41.175 32.4939C41.5562 32.4939 42.6617 31.9983 43.5765 31.3503C45.635 29.978 46.2068 29.9398 46.2068 31.1597C46.2068 32.1127 47.6935 34.0187 48.4178 34.0187C49.7138 34.0187 53.5258 29.978 54.3263 27.8051C54.7456 26.6234 55.2793 27.4621 55.5843 29.7493C55.6986 30.931 56.1942 32.4176 56.6135 33.0276C57.2997 33.9806 57.5284 34.0949 58.9007 33.9043C59.7393 33.79 61.9884 32.9132 63.8944 31.9983C68.3925 29.7874 69.3074 29.5968 69.8411 30.5879C70.4891 31.8077 71.9377 31.5028 75.9784 29.4443C77.9987 28.4151 79.7904 27.5383 79.9047 27.5383C80.0191 27.5383 80.1334 27.8051 80.1334 28.1101C80.1334 28.4151 79.2186 29.3299 78.075 30.1686C75.7497 31.9221 75.3303 32.4176 75.8259 32.9132C76.2071 33.2944 81.0864 29.9017 81.9632 28.6057C82.4969 27.8814 82.4587 27.7289 81.6201 27.0428C80.3622 26.0135 78.5705 26.3566 75.216 28.2626C72.3951 29.8636 70.9847 30.2067 70.9847 29.3299C70.9847 29.0631 71.5183 28.3388 72.1283 27.7289C72.7763 27.119 73.2719 26.3947 73.2719 26.1279C73.2719 25.518 72.4713 24.0313 71.9377 23.6501C70.6797 22.7733 67.4777 25.2511 66.639 27.767C66.1816 29.0631 65.8004 29.4443 63.3607 30.7023C61.8359 31.5028 60.5399 32.0746 60.4636 31.9983C60.3874 31.9221 60.5017 30.8929 60.7304 29.7111C60.9211 28.4913 61.0735 26.6997 60.9973 25.7086C60.8448 23.1545 59.9299 23.1164 58.3289 25.5942C57.6427 26.6615 56.9566 27.5383 56.8041 27.5383C56.3467 27.5383 56.461 24.7937 56.9947 23.3451C57.2615 22.6208 57.7952 21.4391 58.1764 20.753C58.8626 19.3807 58.7863 18.3895 57.9096 18.3895C57.3378 18.3895 55.7368 21.1723 55.7368 22.1634C55.7368 22.5065 55.5843 22.9639 55.3937 23.1926C55.2031 23.3832 54.5169 24.565 53.8307 25.8229C52.2679 28.7581 50.4381 31.1597 49.3326 31.7696C47.9984 32.4939 47.541 31.7315 47.541 28.7963C47.541 25.8229 47.0073 25.3655 45.7875 27.2334C44.7964 28.7581 42.3948 30.5879 41.3656 30.5879C39.6502 30.5879 39.1546 28.5294 40.6032 27.3096C41.0606 26.8903 41.8993 26.3566 42.5092 26.0898C43.081 25.861 43.5384 25.4798 43.5384 25.2511C43.5384 23.8407 37.6679 23.8788 28.9385 25.2892C26.1939 25.7467 23.8686 25.9373 23.7161 25.7848C23.5255 25.5942 23.2587 23.4214 23.1062 20.9817L22.8393 16.5217L24.2879 15.9499C26.7657 14.8825 30.7301 15.34 32.9411 16.9029C34.2372 17.8559 34.4659 17.8177 34.3134 16.7885C34.1228 15.4162 30.2727 13.7389 27.3756 13.7008C23.5636 13.6627 21.1621 15.035 21.3908 17.0554C21.9626 22.5065 22.0388 25.518 21.6957 25.9754C21.1621 26.5853 18.0362 26.3185 15.9396 25.4417C14.4149 24.7937 13.0425 24.9843 13.0425 25.8229C13.0425 26.1279 13.3856 26.5472 13.8049 26.7759C14.7961 27.3096 20.2853 28.4151 20.5522 28.1482C20.9715 27.7289 22.1913 28.72 22.1913 29.4824C22.1913 30.0923 22.0388 30.2067 21.4289 30.0161C20.2853 29.673 20.0566 30.7404 20.8952 32.6082ZM59.5487 27.424C59.5487 27.9195 59.3581 29.0631 59.0913 30.0161C58.8245 30.9691 58.5195 31.7315 58.367 31.7315C57.3759 31.7315 57.6427 29.025 58.7863 27.5383C59.5106 26.5853 59.5487 26.5853 59.5487 27.424ZM70.2604 25.6323C70.451 25.6323 70.4891 25.8992 70.3748 26.2041C70.2223 26.5091 69.8792 26.7759 69.5742 26.7759C69.0787 26.7759 69.0787 26.6615 69.4599 26.2041C69.7267 25.8992 70.0698 25.6323 70.2604 25.6323Z"></path>
</svg>